G75*
G70*
%OFA0B0*%
%FSLAX24Y24*%
%IPPOS*%
%LPD*%
%AMOC8*
5,1,8,0,0,1.08239X$1,22.5*
%
%ADD10C,0.1740*%
%ADD11C,0.1025*%
%ADD12R,0.0634X0.0634*%
%ADD13R,0.0674X0.0674*%
%ADD14C,0.0600*%
%ADD15C,0.0434*%
%ADD16C,0.0680*%
%ADD17R,0.0680X0.0680*%
%ADD18OC8,0.0680*%
%ADD19R,0.0730X0.0730*%
%ADD20C,0.0640*%
%ADD21R,0.0476X0.0476*%
%ADD22R,0.0555X0.0555*%
%ADD23R,0.0671X0.0671*%
%ADD24R,0.1346X0.1346*%
%ADD25R,0.1582X0.1582*%
%ADD26R,0.0966X0.0966*%
%ADD27R,0.1025X0.1025*%
%ADD28R,0.1740X0.1740*%
D10*
X002510Y005834D03*
X007510Y005834D03*
D11*
X001835Y004584D03*
X008185Y004584D03*
D12*
X007210Y009034D03*
X007010Y011834D03*
X006210Y011834D03*
X005810Y012834D03*
X006610Y012834D03*
X007410Y012834D03*
X003810Y011834D03*
X003010Y011834D03*
X002810Y009034D03*
X008644Y017796D03*
X009644Y017796D03*
X010644Y017796D03*
X011644Y017796D03*
X012644Y017796D03*
X013644Y017796D03*
X014644Y017796D03*
X015644Y017796D03*
X016644Y017796D03*
X017644Y017796D03*
X018644Y017796D03*
D13*
X007410Y013834D03*
X006410Y013834D03*
X003610Y013834D03*
X002610Y013834D03*
X036030Y015702D03*
X037998Y015702D03*
X037998Y020702D03*
X036030Y020702D03*
X036030Y025702D03*
X037998Y025702D03*
D14*
X039070Y025956D02*
X039590Y025956D01*
X039590Y026956D02*
X039070Y026956D01*
X039070Y027956D02*
X039590Y027956D01*
D15*
X012459Y002631D03*
X011081Y002631D03*
D16*
X031699Y002588D02*
X031699Y001988D01*
X034699Y001988D02*
X034699Y002588D01*
X036699Y002588D02*
X036699Y001988D01*
X038699Y001988D02*
X038699Y002588D01*
X038699Y004988D02*
X038699Y005588D01*
X038707Y007118D02*
X038707Y007718D01*
X036707Y007718D02*
X036707Y007118D01*
X036699Y005588D02*
X036699Y004988D01*
X034699Y004988D02*
X034699Y005588D01*
X034707Y007118D02*
X034707Y007718D01*
X031707Y007718D02*
X031707Y007118D01*
X031699Y005588D02*
X031699Y004988D01*
X031707Y010118D02*
X031707Y010718D01*
X034707Y010718D02*
X034707Y010118D01*
X036707Y010118D02*
X036707Y010718D01*
X038707Y010718D02*
X038707Y010118D01*
D17*
X012983Y013481D03*
D18*
X011983Y013481D03*
X011983Y012481D03*
X012983Y012481D03*
X010983Y012481D03*
X010983Y013481D03*
D19*
X004714Y017302D03*
X011114Y021102D03*
X011914Y028002D03*
X008714Y028702D03*
X005214Y028602D03*
X001714Y025802D03*
X027483Y011115D03*
X027483Y009115D03*
X027483Y007115D03*
X027483Y005115D03*
X027483Y003115D03*
D20*
X010042Y005876D02*
X009482Y005876D01*
X009482Y006876D02*
X010042Y006876D01*
D21*
X012314Y008402D03*
X013114Y008402D03*
X011514Y008902D03*
X014114Y006802D03*
X014114Y006302D03*
X015064Y005602D03*
X016264Y005752D03*
X016264Y005002D03*
X017264Y004452D03*
X016414Y007502D03*
X015314Y007802D03*
X010614Y004602D03*
X017714Y013902D03*
X019614Y017802D03*
X020014Y019202D03*
X015064Y022252D03*
X013614Y024552D03*
X008264Y019802D03*
X008264Y018452D03*
X007364Y018352D03*
X005464Y017952D03*
X006664Y016752D03*
X007364Y016552D03*
X008764Y016202D03*
X008764Y016952D03*
X006664Y014902D03*
X003814Y017552D03*
X002514Y023202D03*
X002514Y023802D03*
X002514Y024402D03*
X001814Y023202D03*
X020714Y024302D03*
X020714Y029502D03*
X034814Y016502D03*
X037014Y013702D03*
X033714Y013252D03*
X032514Y009102D03*
X025314Y008402D03*
X024314Y008402D03*
X024314Y008902D03*
X024914Y009602D03*
X024914Y010202D03*
D22*
X033714Y015702D03*
X033714Y019102D03*
X035514Y019102D03*
X034014Y027202D03*
X032814Y027202D03*
X009214Y014102D03*
X007314Y014702D03*
X004514Y013802D03*
X011214Y007002D03*
X014864Y004152D03*
D23*
X008614Y020702D03*
X005514Y020902D03*
X002114Y020902D03*
D24*
X027514Y016202D03*
X028514Y015202D03*
X030514Y015202D03*
X031514Y016202D03*
X030514Y017202D03*
X028514Y017202D03*
X032314Y019502D03*
X039264Y029152D03*
D25*
X024609Y029158D03*
X024609Y017800D03*
X002679Y017800D03*
X002679Y029158D03*
D26*
X021814Y019002D03*
X022284Y024277D03*
D27*
X021814Y011802D03*
X022714Y004702D03*
D28*
X016714Y002402D03*
X027514Y015202D03*
X029514Y015202D03*
X031514Y015202D03*
X031514Y017202D03*
X029514Y017202D03*
X027514Y017202D03*
X033914Y023602D03*
X013114Y025902D03*
M02*
