G75*
G70*
%OFA0B0*%
%FSLAX24Y24*%
%IPPOS*%
%LPD*%
%AMOC8*
5,1,8,0,0,1.08239X$1,22.5*
%
%ADD10C,0.0000*%
%ADD11R,0.1110X0.0220*%
%ADD12C,0.0080*%
%ADD13R,0.0140X0.0020*%
%ADD14R,0.0260X0.0560*%
%ADD15R,0.2100X0.0400*%
%ADD16R,0.0500X0.0400*%
%ADD17R,0.0600X0.0900*%
%ADD18R,0.0600X0.0500*%
%ADD19R,0.0900X0.0500*%
%ADD20R,0.0600X0.5000*%
%ADD21R,0.0900X0.1600*%
%ADD22R,0.0800X0.4800*%
%ADD23R,0.0600X0.2600*%
%ADD24R,0.1700X0.0300*%
%ADD25R,0.1000X0.0800*%
%ADD26R,0.1100X0.0400*%
%ADD27R,0.0400X0.0300*%
%ADD28R,0.0600X0.0150*%
%ADD29R,0.0500X0.0485*%
%ADD30R,0.3800X0.0500*%
%ADD31R,0.1100X0.1200*%
%ADD32R,0.3300X0.0600*%
%ADD33R,0.1300X0.2100*%
%ADD34R,0.0500X0.0220*%
%ADD35R,0.0220X0.0500*%
%ADD36C,0.1660*%
%ADD37C,0.0945*%
%ADD38R,0.0554X0.0554*%
%ADD39R,0.0594X0.0594*%
%ADD40R,0.0512X0.0591*%
%ADD41R,0.0591X0.0512*%
%ADD42C,0.0520*%
%ADD43R,0.0984X0.0866*%
%ADD44R,0.0197X0.0787*%
%ADD45R,0.0630X0.0512*%
%ADD46R,0.0512X0.0630*%
%ADD47C,0.0600*%
%ADD48R,0.0600X0.0600*%
%ADD49OC8,0.0600*%
%ADD50R,0.0260X0.0800*%
%ADD51R,0.0320X0.0160*%
%ADD52R,0.0315X0.0197*%
%ADD53R,0.0315X0.0157*%
%ADD54R,0.0160X0.0320*%
%ADD55R,0.0197X0.0315*%
%ADD56R,0.0157X0.0315*%
%ADD57R,0.0945X0.0945*%
%ADD58R,0.1575X0.0630*%
%ADD59R,0.0650X0.0650*%
%ADD60R,0.0394X0.0433*%
%ADD61R,0.0394X0.2067*%
%ADD62R,0.0394X0.0197*%
%ADD63R,0.0394X0.2165*%
%ADD64R,0.0500X0.0300*%
%ADD65R,0.0551X0.1181*%
%ADD66C,0.0560*%
%ADD67R,0.0500X0.0250*%
%ADD68C,0.0120*%
%ADD69C,0.0100*%
%ADD70R,0.0396X0.0396*%
%ADD71C,0.0160*%
%ADD72C,0.0240*%
%ADD73R,0.0475X0.0475*%
%ADD74C,0.0320*%
%ADD75C,0.0500*%
%ADD76R,0.0591X0.0591*%
%ADD77R,0.1266X0.1266*%
%ADD78R,0.1502X0.1502*%
%ADD79R,0.0886X0.0886*%
%ADD80R,0.1660X0.1660*%
D10*
X000514Y000202D02*
X000514Y030198D01*
X040484Y030198D01*
X040484Y000202D01*
X000514Y000202D01*
X010904Y002631D02*
X010906Y002657D01*
X010912Y002683D01*
X010922Y002708D01*
X010935Y002731D01*
X010951Y002751D01*
X010971Y002769D01*
X010993Y002784D01*
X011016Y002796D01*
X011042Y002804D01*
X011068Y002808D01*
X011094Y002808D01*
X011120Y002804D01*
X011146Y002796D01*
X011170Y002784D01*
X011191Y002769D01*
X011211Y002751D01*
X011227Y002731D01*
X011240Y002708D01*
X011250Y002683D01*
X011256Y002657D01*
X011258Y002631D01*
X011256Y002605D01*
X011250Y002579D01*
X011240Y002554D01*
X011227Y002531D01*
X011211Y002511D01*
X011191Y002493D01*
X011169Y002478D01*
X011146Y002466D01*
X011120Y002458D01*
X011094Y002454D01*
X011068Y002454D01*
X011042Y002458D01*
X011016Y002466D01*
X010992Y002478D01*
X010971Y002493D01*
X010951Y002511D01*
X010935Y002531D01*
X010922Y002554D01*
X010912Y002579D01*
X010906Y002605D01*
X010904Y002631D01*
X012282Y002631D02*
X012284Y002657D01*
X012290Y002683D01*
X012300Y002708D01*
X012313Y002731D01*
X012329Y002751D01*
X012349Y002769D01*
X012371Y002784D01*
X012394Y002796D01*
X012420Y002804D01*
X012446Y002808D01*
X012472Y002808D01*
X012498Y002804D01*
X012524Y002796D01*
X012548Y002784D01*
X012569Y002769D01*
X012589Y002751D01*
X012605Y002731D01*
X012618Y002708D01*
X012628Y002683D01*
X012634Y002657D01*
X012636Y002631D01*
X012634Y002605D01*
X012628Y002579D01*
X012618Y002554D01*
X012605Y002531D01*
X012589Y002511D01*
X012569Y002493D01*
X012547Y002478D01*
X012524Y002466D01*
X012498Y002458D01*
X012472Y002454D01*
X012446Y002454D01*
X012420Y002458D01*
X012394Y002466D01*
X012370Y002478D01*
X012349Y002493D01*
X012329Y002511D01*
X012313Y002531D01*
X012300Y002554D01*
X012290Y002579D01*
X012284Y002605D01*
X012282Y002631D01*
D11*
X018629Y008062D03*
D12*
X023954Y005559D02*
X023954Y004945D01*
X024107Y004792D01*
X024414Y004792D01*
X024568Y004945D01*
X024875Y005252D02*
X025489Y005252D01*
X024568Y005559D02*
X024414Y005712D01*
X024107Y005712D01*
X023954Y005559D01*
X024357Y004397D02*
X024203Y004243D01*
X024203Y003783D01*
X025124Y003783D01*
X025124Y004243D01*
X024971Y004397D01*
X024357Y004397D01*
X024203Y003476D02*
X025124Y003476D01*
X024203Y002862D01*
X025124Y002862D01*
X024971Y002555D02*
X024664Y002555D01*
X024664Y002248D01*
X024357Y001942D02*
X024971Y001942D01*
X025124Y002095D01*
X025124Y002402D01*
X024971Y002555D01*
X024357Y002555D02*
X024203Y002402D01*
X024203Y002095D01*
X024357Y001942D01*
X024175Y001455D02*
X024175Y000995D01*
X024328Y000842D01*
X024789Y000842D01*
X024789Y000688D02*
X024635Y000535D01*
X024482Y000535D01*
X024789Y000688D02*
X024789Y001455D01*
X025454Y001309D02*
X025454Y000695D01*
X025607Y000542D01*
X025914Y000542D01*
X026068Y000695D01*
X026375Y000542D02*
X026375Y001462D01*
X026528Y001155D02*
X026835Y001155D01*
X026989Y001002D01*
X026989Y000542D01*
X027296Y000695D02*
X027449Y000848D01*
X027909Y000848D01*
X027909Y001002D02*
X027756Y001155D01*
X027449Y001155D01*
X027296Y000695D02*
X027449Y000542D01*
X027909Y000542D01*
X027909Y001002D01*
X028216Y001155D02*
X028216Y000542D01*
X028216Y000848D02*
X028523Y001155D01*
X028677Y001155D01*
X028984Y001462D02*
X029137Y001462D01*
X029137Y000542D01*
X028984Y000542D02*
X029290Y000542D01*
X029597Y000695D02*
X029597Y001002D01*
X029751Y001155D01*
X030058Y001155D01*
X030211Y001002D01*
X030211Y000848D01*
X029597Y000848D01*
X029597Y000695D02*
X029751Y000542D01*
X030058Y000542D01*
X030518Y000542D02*
X030978Y000542D01*
X031132Y000695D01*
X030978Y000848D01*
X030672Y000848D01*
X030518Y001002D01*
X030672Y001155D01*
X031132Y001155D01*
X031954Y001155D02*
X032107Y001002D01*
X032414Y001002D01*
X032568Y000848D01*
X032568Y000695D01*
X032414Y000542D01*
X032107Y000542D01*
X031954Y000695D01*
X031954Y001155D02*
X031954Y001309D01*
X032107Y001462D01*
X032414Y001462D01*
X032568Y001309D01*
X032875Y001462D02*
X032875Y000542D01*
X033489Y000542D02*
X033489Y001002D01*
X033335Y001155D01*
X033028Y001155D01*
X032875Y001002D01*
X033796Y001155D02*
X033949Y001155D01*
X033949Y000542D01*
X033796Y000542D02*
X034102Y000542D01*
X034563Y000542D02*
X034563Y001309D01*
X034716Y001462D01*
X035023Y001462D02*
X035177Y001462D01*
X035177Y000542D01*
X035330Y000542D02*
X035023Y000542D01*
X034716Y001002D02*
X034409Y001002D01*
X033949Y001462D02*
X033949Y001616D01*
X035637Y001002D02*
X035637Y000695D01*
X035790Y000542D01*
X036097Y000542D01*
X036251Y000848D02*
X035637Y000848D01*
X035637Y001002D02*
X035790Y001155D01*
X036097Y001155D01*
X036251Y001002D01*
X036251Y000848D01*
X036558Y001155D02*
X036865Y001155D01*
X036711Y001309D02*
X036711Y000695D01*
X036865Y000542D01*
X037325Y000695D02*
X037478Y000542D01*
X037325Y000695D02*
X037325Y001309D01*
X037172Y001155D02*
X037478Y001155D01*
X026528Y001155D02*
X026375Y001002D01*
X026068Y001309D02*
X025914Y001462D01*
X025607Y001462D01*
X025454Y001309D01*
X023868Y001302D02*
X023868Y000995D01*
X023714Y000842D01*
X023254Y000842D01*
X023254Y001762D01*
X023254Y001455D02*
X023714Y001455D01*
X023868Y001302D01*
X022665Y001402D02*
X022665Y000942D01*
X022665Y001402D02*
X022511Y001555D01*
X022051Y001555D01*
X022051Y000942D01*
X021744Y000942D02*
X021284Y000942D01*
X021130Y001095D01*
X021130Y001402D01*
X021284Y001555D01*
X021744Y001555D01*
X021744Y000788D01*
X021590Y000635D01*
X021437Y000635D01*
X020823Y000942D02*
X020516Y000942D01*
X020670Y000942D02*
X020670Y001555D01*
X020516Y001555D01*
X020209Y001555D02*
X019749Y001555D01*
X019596Y001402D01*
X019749Y001248D01*
X020056Y001248D01*
X020209Y001095D01*
X020056Y000942D01*
X019596Y000942D01*
X019289Y001248D02*
X018675Y001248D01*
X018675Y001095D02*
X018675Y001402D01*
X018828Y001555D01*
X019135Y001555D01*
X019289Y001402D01*
X019289Y001248D01*
X019135Y000942D02*
X018828Y000942D01*
X018675Y001095D01*
X018368Y001095D02*
X018368Y001709D01*
X018214Y001862D01*
X017754Y001862D01*
X017754Y000942D01*
X018214Y000942D01*
X018368Y001095D01*
X020670Y001862D02*
X020670Y002016D01*
X029704Y011592D02*
X029704Y012512D01*
X029704Y012052D02*
X030318Y012052D01*
X030625Y012052D02*
X031239Y012052D01*
X030932Y012359D02*
X030932Y011745D01*
X030318Y011592D02*
X030318Y012512D01*
X022990Y014595D02*
X022837Y014442D01*
X022530Y014442D01*
X022377Y014595D01*
X022990Y015209D01*
X022990Y014595D01*
X022377Y014595D02*
X022377Y015209D01*
X022530Y015362D01*
X022837Y015362D01*
X022990Y015209D01*
X022070Y014442D02*
X021456Y014442D01*
X021763Y014442D02*
X021763Y015362D01*
X021456Y015055D01*
X021149Y014595D02*
X021149Y014442D01*
X020996Y014442D01*
X020996Y014595D01*
X021149Y014595D01*
X020689Y014595D02*
X020535Y014442D01*
X020228Y014442D01*
X020075Y014595D01*
X020689Y015209D01*
X020689Y014595D01*
X020075Y014595D02*
X020075Y015209D01*
X020228Y015362D01*
X020535Y015362D01*
X020689Y015209D01*
X019768Y014442D02*
X019154Y014442D01*
X019461Y014442D02*
X019461Y015362D01*
X019154Y015055D01*
X019607Y014062D02*
X019454Y013909D01*
X019607Y014062D02*
X019914Y014062D01*
X020068Y013909D01*
X020068Y013755D01*
X019454Y013142D01*
X020068Y013142D01*
X020375Y013295D02*
X020989Y013909D01*
X020989Y013295D01*
X020835Y013142D01*
X020528Y013142D01*
X020375Y013295D01*
X020375Y013909D01*
X020528Y014062D01*
X020835Y014062D01*
X020989Y013909D01*
X021296Y013755D02*
X021602Y014062D01*
X021602Y013142D01*
X021296Y013142D02*
X021909Y013142D01*
X022216Y013142D02*
X022830Y013142D01*
X022523Y013142D02*
X022523Y014062D01*
X022216Y013755D01*
X019074Y018425D02*
X018153Y018425D01*
X018153Y018885D01*
X018307Y019039D01*
X018460Y019039D01*
X018614Y018885D01*
X018614Y018425D01*
X019074Y018425D02*
X019074Y018885D01*
X018921Y019039D01*
X018767Y019039D01*
X018614Y018885D01*
X018614Y019346D02*
X018460Y019499D01*
X018460Y019806D01*
X018614Y019959D01*
X018767Y019959D01*
X018767Y019346D01*
X018614Y019346D02*
X018921Y019346D01*
X019074Y019499D01*
X019074Y019806D01*
X018921Y020266D02*
X018767Y020420D01*
X018767Y020880D01*
X018614Y020880D02*
X019074Y020880D01*
X019074Y020420D01*
X018921Y020266D01*
X018460Y020420D02*
X018460Y020727D01*
X018614Y020880D01*
X018767Y021187D02*
X018460Y021494D01*
X018460Y021647D01*
X018307Y021954D02*
X018153Y022108D01*
X018153Y022415D01*
X018307Y022568D01*
X018614Y022568D01*
X018767Y022415D01*
X018460Y022415D01*
X018460Y022108D01*
X018767Y022108D01*
X018767Y022415D01*
X018921Y022568D02*
X019074Y022415D01*
X019074Y022108D01*
X018921Y021954D01*
X018307Y021954D01*
X018460Y021187D02*
X019074Y021187D01*
X018307Y022875D02*
X018614Y023182D01*
X019074Y023182D01*
X018614Y023182D02*
X018307Y023489D01*
X018153Y023489D01*
X018460Y023796D02*
X018460Y023949D01*
X019074Y023949D01*
X019074Y023796D02*
X019074Y024103D01*
X019074Y024410D02*
X018153Y024410D01*
X018153Y023949D02*
X018000Y023949D01*
X018767Y024410D02*
X018460Y024870D01*
X018614Y025177D02*
X018460Y025330D01*
X018460Y025637D01*
X018614Y025791D01*
X018767Y025791D01*
X018767Y025177D01*
X018614Y025177D02*
X018921Y025177D01*
X019074Y025330D01*
X019074Y025637D01*
X019074Y026098D02*
X019074Y026558D01*
X018921Y026712D01*
X018767Y026558D01*
X018767Y026251D01*
X018614Y026098D01*
X018460Y026251D01*
X018460Y026712D01*
X018921Y027018D02*
X018921Y027172D01*
X019074Y027172D01*
X019074Y027018D01*
X018921Y027018D01*
X018921Y027479D02*
X018614Y027479D01*
X018460Y027632D01*
X018460Y028093D01*
X018614Y028400D02*
X018921Y028400D01*
X019074Y028553D01*
X019074Y028860D01*
X018921Y029013D01*
X018614Y029013D01*
X018460Y028860D01*
X018460Y028553D01*
X018614Y028400D01*
X019074Y028093D02*
X019074Y027632D01*
X018921Y027479D01*
X019074Y029320D02*
X018460Y029320D01*
X018460Y029474D01*
X018614Y029627D01*
X018460Y029781D01*
X018614Y029934D01*
X019074Y029934D01*
X019074Y029627D02*
X018614Y029627D01*
X019074Y024870D02*
X018767Y024410D01*
X018307Y022875D02*
X018153Y022875D01*
X016658Y019562D02*
X016351Y019562D01*
X016197Y019409D01*
X016197Y018795D01*
X016811Y019409D01*
X016811Y018795D01*
X016658Y018642D01*
X016351Y018642D01*
X016197Y018795D01*
X016811Y019409D02*
X016658Y019562D01*
X014970Y018795D02*
X014970Y018642D01*
X014816Y018642D01*
X014816Y018795D01*
X014970Y018795D01*
X014509Y019255D02*
X014202Y018642D01*
X013896Y019255D01*
X013589Y019102D02*
X013589Y018948D01*
X012975Y018948D01*
X012975Y018795D02*
X012975Y019102D01*
X013128Y019255D01*
X013435Y019255D01*
X013589Y019102D01*
X013435Y018642D02*
X013128Y018642D01*
X012975Y018795D01*
X012668Y018642D02*
X012361Y018948D01*
X012514Y018948D02*
X012054Y018948D01*
X012054Y018642D02*
X012054Y019562D01*
X012514Y019562D01*
X012668Y019409D01*
X012668Y019102D01*
X012514Y018948D01*
X025854Y029042D02*
X025854Y029962D01*
X025854Y029502D02*
X026468Y029502D01*
X026775Y029195D02*
X026928Y029348D01*
X027389Y029348D01*
X027389Y029502D02*
X027389Y029042D01*
X026928Y029042D01*
X026775Y029195D01*
X026468Y029042D02*
X026468Y029962D01*
X026928Y029655D02*
X027235Y029655D01*
X027389Y029502D01*
X027696Y029655D02*
X028156Y029655D01*
X028309Y029502D01*
X028309Y029195D01*
X028156Y029042D01*
X027696Y029042D01*
X027696Y028735D02*
X027696Y029655D01*
X028616Y029655D02*
X029077Y029655D01*
X029230Y029502D01*
X029230Y029195D01*
X029077Y029042D01*
X028616Y029042D01*
X028616Y028735D02*
X028616Y029655D01*
X029537Y029655D02*
X029537Y029195D01*
X029690Y029042D01*
X030151Y029042D01*
X030151Y028888D02*
X029997Y028735D01*
X029844Y028735D01*
X030151Y028888D02*
X030151Y029655D01*
X031379Y029502D02*
X031839Y029502D01*
X031992Y029348D01*
X031992Y029195D01*
X031839Y029042D01*
X031379Y029042D01*
X031379Y029962D01*
X031839Y029962D01*
X031992Y029809D01*
X031992Y029655D01*
X031839Y029502D01*
X032299Y029502D02*
X032299Y029195D01*
X032453Y029042D01*
X032913Y029042D01*
X032913Y029962D01*
X032913Y029655D02*
X032453Y029655D01*
X032299Y029502D01*
X033220Y029195D02*
X033373Y029042D01*
X033834Y029042D01*
X033834Y029502D01*
X033680Y029655D01*
X033373Y029655D01*
X033373Y029348D02*
X033834Y029348D01*
X034141Y029195D02*
X034294Y029042D01*
X034755Y029042D01*
X034755Y028888D02*
X034601Y028735D01*
X034448Y028735D01*
X034755Y028888D02*
X034755Y029655D01*
X034141Y029655D02*
X034141Y029195D01*
X033373Y029348D02*
X033220Y029195D01*
X035982Y029042D02*
X035982Y029962D01*
X036443Y029962D01*
X036596Y029809D01*
X036596Y029502D01*
X036443Y029348D01*
X035982Y029348D01*
X036289Y029348D02*
X036596Y029042D01*
X036903Y029042D02*
X037210Y029348D01*
X037517Y029042D01*
X037517Y029962D01*
X037824Y029809D02*
X037824Y029655D01*
X037977Y029502D01*
X038284Y029502D01*
X038438Y029348D01*
X038438Y029195D01*
X038284Y029042D01*
X037977Y029042D01*
X037824Y029195D01*
X037824Y029809D02*
X037977Y029962D01*
X038284Y029962D01*
X038438Y029809D01*
X036903Y029962D02*
X036903Y029042D01*
D13*
X020724Y007832D03*
D14*
X025864Y019862D03*
D15*
X026764Y019802D03*
D16*
X027564Y019402D03*
X023964Y024002D03*
D17*
X027614Y018352D03*
D18*
X027614Y018752D03*
D19*
X024964Y023052D03*
D20*
X024014Y021402D03*
D21*
X023664Y024902D03*
D22*
X022514Y021402D03*
D23*
X022514Y025902D03*
D24*
X023764Y027052D03*
D25*
X025314Y026602D03*
D26*
X025264Y027002D03*
D27*
X018914Y002552D03*
D28*
X022414Y023827D03*
D29*
X024084Y025999D03*
D30*
X025414Y025652D03*
D31*
X023764Y025902D03*
D32*
X025764Y025702D03*
D33*
X026864Y023752D03*
D34*
X017826Y009635D03*
X017826Y009320D03*
X017826Y009005D03*
X017826Y008690D03*
X017826Y008375D03*
X017826Y008060D03*
X017826Y007745D03*
X017826Y007430D03*
X014446Y007430D03*
X014446Y007745D03*
X014446Y008060D03*
X014446Y008375D03*
X014446Y008690D03*
X014446Y009005D03*
X014446Y009320D03*
X014446Y009635D03*
D35*
X015034Y010222D03*
X015349Y010222D03*
X015664Y010222D03*
X015979Y010222D03*
X016294Y010222D03*
X016609Y010222D03*
X016923Y010222D03*
X017238Y010222D03*
X017238Y006842D03*
X016923Y006842D03*
X016609Y006842D03*
X016294Y006842D03*
X015979Y006842D03*
X015664Y006842D03*
X015349Y006842D03*
X015034Y006842D03*
D36*
X007510Y005834D03*
X002510Y005834D03*
D37*
X001835Y004584D03*
X008185Y004584D03*
D38*
X007210Y009034D03*
X007010Y011834D03*
X006210Y011834D03*
X005810Y012834D03*
X006610Y012834D03*
X007410Y012834D03*
X003810Y011834D03*
X003010Y011834D03*
X002810Y009034D03*
X008644Y017796D03*
X009644Y017796D03*
X010644Y017796D03*
X011644Y017796D03*
X012644Y017796D03*
X013644Y017796D03*
X014644Y017796D03*
X015644Y017796D03*
X016644Y017796D03*
X017644Y017796D03*
X018644Y017796D03*
D39*
X007410Y013834D03*
X006410Y013834D03*
X003610Y013834D03*
X002610Y013834D03*
X036030Y015702D03*
X037998Y015702D03*
X037998Y020702D03*
X036030Y020702D03*
X036030Y025702D03*
X037998Y025702D03*
D40*
X035549Y018002D03*
X034879Y018002D03*
X027549Y019102D03*
X026879Y019102D03*
X023649Y019002D03*
X022979Y019002D03*
X022929Y019902D03*
X023599Y019902D03*
X023649Y020802D03*
X022979Y020802D03*
X022979Y021652D03*
X023649Y021652D03*
X023649Y022552D03*
X022979Y022552D03*
X023029Y023452D03*
X023699Y023452D03*
X025229Y024202D03*
X025899Y024202D03*
X024749Y026502D03*
X024079Y026502D03*
X011149Y028502D03*
X010479Y028502D03*
X010579Y022402D03*
X011249Y022402D03*
X007049Y019102D03*
X006379Y019102D03*
X005549Y016502D03*
X004879Y016502D03*
X017979Y006352D03*
X018649Y006352D03*
X018529Y008552D03*
X019199Y008552D03*
X021559Y010292D03*
X022229Y010292D03*
X014349Y005652D03*
X013679Y005652D03*
X021569Y003792D03*
X022239Y003792D03*
D41*
X017114Y005117D03*
X017114Y005786D03*
X034614Y013467D03*
X034614Y014136D03*
X036214Y022867D03*
X036214Y023536D03*
X011114Y019836D03*
X011114Y019167D03*
X008614Y021767D03*
X008614Y022436D03*
X002514Y026067D03*
X002514Y026736D03*
X006614Y027567D03*
X006614Y028236D03*
X008114Y028136D03*
X008114Y027467D03*
D42*
X039070Y027956D02*
X039590Y027956D01*
X039590Y026956D02*
X039070Y026956D01*
X039070Y025956D02*
X039590Y025956D01*
D43*
X013423Y003418D03*
X013423Y001331D03*
X010116Y001331D03*
X010116Y003418D03*
D44*
X011140Y003517D03*
X011455Y003517D03*
X011770Y003517D03*
X012085Y003517D03*
X012400Y003517D03*
D45*
X012214Y004628D03*
X011464Y004628D03*
X011464Y005376D03*
X012214Y005376D03*
X001914Y014928D03*
X001914Y015676D03*
X002914Y015876D03*
X002914Y015128D03*
X006214Y017328D03*
X006214Y018076D03*
X009714Y016476D03*
X009714Y015728D03*
X030014Y009326D03*
X030014Y008578D03*
X030064Y005726D03*
X030064Y004978D03*
X035714Y013228D03*
X035714Y013976D03*
X033714Y013828D03*
X033714Y014576D03*
X035114Y019728D03*
X035114Y020476D03*
X037114Y022828D03*
X037114Y023576D03*
D46*
X035388Y027302D03*
X034640Y027302D03*
X025888Y019102D03*
X025140Y019102D03*
X032640Y012002D03*
X033388Y012002D03*
X034340Y012002D03*
X035088Y012002D03*
X036240Y012102D03*
X036988Y012102D03*
X038240Y012102D03*
X038988Y012102D03*
X035588Y017202D03*
X034840Y017202D03*
X012888Y006802D03*
X012140Y006802D03*
X010788Y007802D03*
X010040Y007802D03*
X010042Y008691D03*
X010790Y008691D03*
X007188Y015902D03*
X006440Y015902D03*
X005488Y019102D03*
X004740Y019102D03*
X007740Y019102D03*
X008488Y019102D03*
X009340Y019102D03*
X010088Y019102D03*
D47*
X031707Y010718D02*
X031707Y010118D01*
X034707Y010118D02*
X034707Y010718D01*
X036707Y010718D02*
X036707Y010118D01*
X038707Y010118D02*
X038707Y010718D01*
X038707Y007718D02*
X038707Y007118D01*
X038699Y005588D02*
X038699Y004988D01*
X036699Y004988D02*
X036699Y005588D01*
X036707Y007118D02*
X036707Y007718D01*
X034707Y007718D02*
X034707Y007118D01*
X034699Y005588D02*
X034699Y004988D01*
X031699Y004988D02*
X031699Y005588D01*
X031707Y007118D02*
X031707Y007718D01*
X031699Y002588D02*
X031699Y001988D01*
X034699Y001988D02*
X034699Y002588D01*
X036699Y002588D02*
X036699Y001988D01*
X038699Y001988D02*
X038699Y002588D01*
D48*
X012983Y013481D03*
D49*
X011983Y013481D03*
X011983Y012481D03*
X012983Y012481D03*
X010983Y012481D03*
X010983Y013481D03*
D50*
X024864Y020492D03*
X025364Y020492D03*
X025864Y020492D03*
X026364Y020492D03*
X026364Y022912D03*
X025864Y022912D03*
X025364Y022912D03*
X024864Y022912D03*
D51*
X021408Y025302D03*
X020620Y025302D03*
X020720Y026202D03*
X021508Y026202D03*
X021508Y027102D03*
X020720Y027102D03*
D52*
X020720Y027082D03*
X021508Y027082D03*
X021508Y026182D03*
X020720Y026182D03*
X020620Y025282D03*
X021408Y025282D03*
D53*
X020620Y025302D03*
X020720Y026202D03*
X020720Y027102D03*
D54*
X024714Y025695D03*
X024714Y024908D03*
X009714Y024120D03*
X009714Y026483D03*
X020864Y008233D03*
X020864Y005870D03*
D55*
X024694Y024908D03*
X024694Y025695D03*
D56*
X024714Y025695D03*
D57*
X026114Y024835D03*
X026114Y026568D03*
X021814Y011802D03*
X022714Y004702D03*
D58*
X027727Y021022D03*
X030522Y021022D03*
D59*
X027483Y011115D03*
X027483Y009115D03*
X027483Y007115D03*
X027483Y005115D03*
X027483Y003115D03*
X004714Y017302D03*
X011114Y021102D03*
X011914Y028002D03*
X008714Y028702D03*
X005214Y028602D03*
X001714Y025802D03*
D60*
X030664Y009286D03*
X030664Y008617D03*
X030714Y004086D03*
X030714Y003417D03*
D61*
X020864Y008872D03*
X009714Y023481D03*
D62*
X009714Y022447D03*
X020864Y009906D03*
D63*
X020864Y008922D03*
X020864Y005181D03*
X020864Y005181D03*
X009714Y023431D03*
X009714Y027172D03*
X009714Y027172D03*
D64*
X007455Y026776D03*
X007455Y026276D03*
X007455Y025776D03*
X007455Y025276D03*
X007455Y024776D03*
X007455Y024276D03*
X007455Y023776D03*
X007455Y023276D03*
X007455Y022776D03*
X007455Y022276D03*
X007455Y021776D03*
X007455Y021276D03*
X007455Y020776D03*
X007455Y020276D03*
X003691Y020276D03*
X003691Y020776D03*
X003691Y021276D03*
X003691Y021776D03*
X003691Y022276D03*
X003691Y022776D03*
X003691Y023276D03*
X003691Y023776D03*
X003691Y024276D03*
X003691Y024776D03*
X003691Y025276D03*
X003691Y025776D03*
X003691Y026276D03*
X003691Y026776D03*
D65*
X019317Y004246D03*
X019317Y002357D03*
D66*
X010042Y005876D02*
X009482Y005876D01*
X009482Y006876D02*
X010042Y006876D01*
D67*
X029283Y023989D03*
X029204Y026017D03*
D68*
X027432Y027099D02*
X030976Y027099D01*
X031019Y027095D01*
X031061Y027080D01*
X031098Y027056D01*
X031130Y027025D01*
X031153Y026988D01*
X031168Y026946D01*
X031173Y026903D01*
X031173Y025682D01*
X027236Y025682D01*
X027236Y026903D01*
X027240Y026946D01*
X027255Y026988D01*
X027278Y027025D01*
X027310Y027056D01*
X027347Y027080D01*
X027389Y027095D01*
X027432Y027099D01*
X030976Y027099D01*
X031019Y027095D01*
X031061Y027080D01*
X031098Y027056D01*
X031130Y027025D01*
X031153Y026988D01*
X031168Y026946D01*
X031173Y026903D01*
X031173Y025682D01*
X027236Y025682D01*
X027236Y026903D01*
X027240Y026946D01*
X027255Y026988D01*
X027278Y027025D01*
X027310Y027056D01*
X027347Y027080D01*
X027389Y027095D01*
X027432Y027099D01*
X027258Y026992D02*
X031150Y026992D01*
X027258Y026992D01*
X027236Y026874D02*
X031173Y026874D01*
X027236Y026874D01*
X027236Y026755D02*
X031173Y026755D01*
X027236Y026755D01*
X027236Y026637D02*
X031173Y026637D01*
X027236Y026637D01*
X027236Y026518D02*
X031173Y026518D01*
X027236Y026518D01*
X027236Y026400D02*
X031173Y026400D01*
X027236Y026400D01*
X027236Y026281D02*
X031173Y026281D01*
X027236Y026281D01*
X027236Y026163D02*
X031173Y026163D01*
X027236Y026163D01*
X027236Y026044D02*
X031173Y026044D01*
X027236Y026044D01*
X027236Y025925D02*
X031173Y025925D01*
X027236Y025925D01*
X027236Y025807D02*
X031173Y025807D01*
X027236Y025807D01*
X027236Y025688D02*
X031173Y025688D01*
X027236Y025688D01*
X027275Y024462D02*
X027275Y023241D01*
X027280Y023197D01*
X027294Y023156D01*
X027318Y023118D01*
X027349Y023087D01*
X027386Y023064D01*
X027428Y023049D01*
X027472Y023044D01*
X031015Y023044D01*
X031059Y023049D01*
X031100Y023064D01*
X031138Y023087D01*
X031169Y023118D01*
X031192Y023156D01*
X031207Y023197D01*
X031212Y023241D01*
X031212Y024462D01*
X027275Y024462D01*
X027275Y024384D02*
X031212Y024384D01*
X031212Y024266D02*
X027275Y024266D01*
X027275Y024147D02*
X031212Y024147D01*
X031212Y024029D02*
X027275Y024029D01*
X027275Y023910D02*
X031212Y023910D01*
X031212Y023792D02*
X027275Y023792D01*
X027275Y023673D02*
X031212Y023673D01*
X031212Y023555D02*
X027275Y023555D01*
X027275Y023436D02*
X031212Y023436D01*
X031212Y023318D02*
X027275Y023318D01*
X027280Y023199D02*
X031207Y023199D01*
X031127Y023080D02*
X027360Y023080D01*
D69*
X026364Y022912D02*
X026364Y023989D01*
X029283Y023989D01*
X029204Y026017D02*
X027009Y026017D01*
X027009Y025707D01*
X024714Y025707D01*
X024714Y025695D01*
X024079Y025695D01*
X024079Y026502D01*
X025914Y027902D02*
X021114Y027902D01*
X021114Y029902D01*
X020314Y029902D01*
X020314Y027902D01*
X019414Y027902D01*
X019414Y017802D01*
X019614Y017802D01*
X020014Y019202D02*
X020014Y026202D01*
X020720Y026202D01*
X020720Y027102D02*
X020720Y029502D01*
X020714Y029502D01*
X025914Y028302D02*
X025914Y027902D01*
X025914Y028302D02*
X037984Y028302D01*
X039330Y026956D01*
X038614Y026102D02*
X038614Y022502D01*
X037014Y020902D01*
X037014Y018902D01*
X036614Y018502D01*
X035114Y018502D01*
X035014Y018402D01*
X035014Y018136D01*
X034879Y018002D01*
X034879Y017202D01*
X034840Y017202D01*
X034814Y017176D01*
X034814Y016502D01*
X035088Y015902D02*
X035588Y016402D01*
X035588Y017202D01*
X035549Y017202D01*
X035549Y018002D01*
X037998Y018002D01*
X037998Y020702D01*
X036030Y020702D02*
X035804Y020476D01*
X035114Y020476D01*
X035114Y019728D02*
X035114Y019102D01*
X035514Y019102D01*
X034614Y018602D02*
X034614Y021402D01*
X035714Y021802D01*
X036214Y022867D01*
X037075Y022867D01*
X037114Y022828D01*
X037740Y022828D01*
X038014Y023102D01*
X038014Y025686D01*
X037998Y025702D01*
X038614Y026102D02*
X038314Y026402D01*
X037414Y026402D01*
X036914Y025902D01*
X036914Y024202D01*
X036249Y023536D01*
X036214Y023536D01*
X037075Y023536D01*
X037114Y023576D01*
X036030Y025702D02*
X036030Y026660D01*
X035388Y027302D01*
X034640Y027302D02*
X034340Y027202D01*
X034014Y027202D01*
X034614Y027302D02*
X034614Y028002D01*
X037284Y028002D01*
X039330Y025956D01*
X034640Y027302D02*
X034614Y027302D01*
X032814Y027202D02*
X031614Y027117D01*
X029204Y027117D01*
X029204Y026017D01*
X026454Y022302D02*
X026194Y022302D01*
X026454Y022302D02*
X026034Y021882D01*
X026454Y022062D02*
X026454Y022302D01*
X020714Y024302D02*
X020620Y024302D01*
X020620Y025302D01*
X017214Y024402D02*
X013964Y024402D01*
X013964Y024552D01*
X013614Y024552D01*
X013014Y024002D02*
X016814Y024002D01*
X016814Y020502D01*
X013214Y020502D01*
X013214Y023802D01*
X016614Y023802D01*
X016614Y020702D01*
X013414Y020702D01*
X013414Y023602D01*
X016414Y023602D01*
X016414Y020902D01*
X013614Y020902D01*
X013614Y023402D01*
X016214Y023402D01*
X016214Y021102D01*
X013814Y021102D01*
X013814Y023202D01*
X016014Y023202D01*
X016014Y021302D01*
X014014Y021302D01*
X014014Y023002D01*
X015814Y023002D01*
X015814Y021502D01*
X014214Y021502D01*
X014214Y022802D01*
X015614Y022802D01*
X015614Y021702D01*
X014414Y021702D01*
X014414Y022602D01*
X015414Y022602D01*
X015414Y021902D01*
X014614Y021902D01*
X014614Y022402D01*
X014664Y022402D02*
X014714Y022402D01*
X014864Y022252D01*
X015064Y022252D01*
X013014Y024002D02*
X013014Y020302D01*
X017014Y020302D01*
X017014Y024202D01*
X012814Y024202D01*
X012814Y020102D01*
X017214Y020102D01*
X017214Y024402D01*
X010114Y019802D02*
X010114Y019102D01*
X010088Y019102D01*
X010114Y019802D02*
X008264Y019802D01*
X008114Y019802D01*
X008114Y021276D01*
X007455Y021276D01*
X007455Y020776D02*
X007914Y020776D01*
X007914Y019602D01*
X007914Y014302D01*
X006914Y014302D01*
X006914Y014502D01*
X006714Y014502D01*
X006714Y014302D01*
X006514Y014302D01*
X006514Y014502D01*
X006314Y014502D01*
X006314Y014302D01*
X006114Y014302D01*
X006114Y014502D01*
X005514Y014502D01*
X005514Y013202D01*
X005714Y013202D01*
X005714Y014302D01*
X005914Y014302D01*
X005914Y013402D01*
X006014Y013402D01*
X006014Y013202D01*
X005914Y013202D01*
X005914Y012938D01*
X005810Y012834D01*
X005314Y012302D02*
X005314Y014702D01*
X006664Y014702D01*
X006664Y014902D01*
X007314Y014702D02*
X007314Y015802D01*
X007188Y015902D01*
X007020Y015902D01*
X007014Y015902D01*
X007020Y015902D02*
X007020Y018492D01*
X004214Y018502D01*
X004214Y019802D01*
X003214Y019802D01*
X003214Y020776D01*
X003691Y020776D01*
X003691Y020276D02*
X004740Y020276D01*
X004740Y019102D01*
X004014Y019602D02*
X003014Y019602D01*
X003014Y021302D01*
X003691Y021302D01*
X003691Y021276D01*
X003691Y022202D02*
X003691Y022276D01*
X003691Y022202D02*
X001614Y022202D01*
X001614Y018902D01*
X003814Y018902D01*
X003814Y017952D01*
X005464Y017952D01*
X006214Y018076D02*
X006214Y018302D01*
X004014Y018302D01*
X004014Y019602D01*
X003614Y018702D02*
X003614Y017752D01*
X003814Y017552D01*
X003614Y018702D02*
X001414Y018702D01*
X001414Y022776D01*
X003691Y022776D01*
X003691Y023276D02*
X002514Y023276D01*
X002514Y023202D01*
X001814Y023202D02*
X001814Y025276D01*
X003691Y025276D01*
X003691Y024276D02*
X002514Y024276D01*
X002514Y024402D01*
X004814Y026702D02*
X004914Y026602D01*
X004814Y026702D02*
X004914Y026802D01*
X004814Y026702D02*
X005314Y026702D01*
X005614Y027202D02*
X001214Y027202D01*
X001214Y016102D01*
X002914Y016102D01*
X002914Y015876D01*
X003214Y015202D02*
X004514Y015202D01*
X004514Y013802D01*
X003214Y015128D02*
X003214Y015202D01*
X003214Y015128D02*
X002914Y015128D01*
X002610Y014702D02*
X002610Y013834D01*
X002610Y014702D02*
X001914Y014702D01*
X001914Y014928D01*
X001914Y015602D02*
X001914Y015676D01*
X001914Y015902D01*
X001014Y015902D01*
X001014Y027402D01*
X005814Y027402D01*
X005814Y026276D01*
X007455Y026276D01*
X007455Y025776D02*
X005614Y025776D01*
X005614Y027202D01*
X000564Y030152D02*
X000564Y000252D01*
X040464Y000252D01*
X040464Y030152D01*
X000564Y030152D01*
X007740Y019602D02*
X007740Y019102D01*
X007740Y019602D02*
X007914Y019602D01*
X008114Y018452D02*
X008114Y014302D01*
X008814Y014302D01*
X009214Y014102D01*
X009714Y014502D02*
X008314Y014502D01*
X008314Y016552D01*
X008364Y016602D01*
X008764Y016602D01*
X008764Y016952D01*
X009644Y016476D02*
X009644Y017796D01*
X010644Y017796D02*
X010644Y015402D01*
X014914Y015402D01*
X014914Y013002D01*
X016314Y013002D01*
X016314Y010222D01*
X016294Y010222D01*
X016014Y010222D02*
X016014Y012702D01*
X014614Y012702D01*
X014614Y015102D01*
X009714Y015102D01*
X009714Y015728D01*
X009714Y016476D02*
X009644Y016476D01*
X008764Y016202D02*
X008764Y015552D01*
X009514Y014802D01*
X014314Y014802D01*
X014314Y012402D01*
X015714Y012402D01*
X015714Y010222D01*
X015664Y010222D01*
X015979Y010222D02*
X016014Y010222D01*
X016609Y010222D02*
X016614Y010222D01*
X016614Y013402D01*
X015214Y013402D01*
X015214Y015702D01*
X011644Y015702D01*
X011644Y017796D01*
X012644Y017796D02*
X012644Y016002D01*
X015514Y016002D01*
X015514Y013702D01*
X016914Y013702D01*
X016914Y010222D01*
X016923Y010222D01*
X017214Y010222D02*
X017214Y014002D01*
X015814Y014002D01*
X015814Y016302D01*
X013644Y016302D01*
X013644Y017796D01*
X014644Y017796D02*
X014644Y016702D01*
X016114Y016702D01*
X016114Y014302D01*
X018114Y014302D01*
X018114Y009635D01*
X017826Y009635D01*
X017826Y009320D02*
X018014Y009320D01*
X018014Y009302D01*
X018414Y009302D01*
X018414Y014702D01*
X016414Y014702D01*
X016414Y017102D01*
X015644Y017102D01*
X015644Y017796D01*
X016644Y017796D02*
X016714Y017796D01*
X016714Y015002D01*
X018714Y015002D01*
X018714Y009002D01*
X017826Y009002D01*
X017826Y009005D01*
X017826Y008690D02*
X017314Y008690D01*
X017314Y009702D01*
X017714Y010102D01*
X017714Y013902D01*
X015314Y011002D02*
X013714Y011002D01*
X013714Y014202D01*
X011983Y014202D01*
X011983Y013481D01*
X011514Y013302D02*
X011814Y013002D01*
X012503Y013002D01*
X012983Y013481D01*
X011983Y012481D02*
X011983Y010222D01*
X015034Y010222D01*
X015314Y010222D02*
X015314Y011002D01*
X015314Y010222D02*
X015349Y010222D01*
X015114Y009602D02*
X014664Y010002D01*
X011514Y010002D01*
X011514Y012950D01*
X010983Y013481D01*
X011514Y013302D02*
X011514Y014202D01*
X010314Y014202D01*
X010314Y009635D01*
X014446Y009635D01*
X014446Y009320D02*
X009714Y009320D01*
X009714Y014502D01*
X007364Y016552D02*
X007364Y018352D01*
X006814Y018302D02*
X006814Y016852D01*
X006664Y016752D01*
X006814Y018302D02*
X006214Y018302D01*
X008114Y018452D02*
X008264Y018452D01*
X006610Y012834D02*
X006610Y012302D01*
X005314Y012302D01*
X010040Y008691D02*
X010040Y007802D01*
X010788Y007802D02*
X010788Y006876D01*
X010714Y006802D01*
X010714Y006252D01*
X013614Y006252D01*
X013679Y006236D01*
X013679Y005652D01*
X013264Y006052D02*
X011464Y006052D01*
X011464Y005376D01*
X012214Y005376D02*
X012214Y005602D01*
X012264Y005602D01*
X012264Y005852D01*
X012664Y005852D01*
X012664Y005452D01*
X012864Y005452D01*
X012864Y005852D01*
X013064Y005852D01*
X013064Y005002D01*
X016264Y005002D01*
X016614Y005402D02*
X015564Y005402D01*
X015564Y005202D01*
X013264Y005202D01*
X013264Y006052D01*
X014114Y006302D02*
X014714Y006302D01*
X014714Y006402D01*
X015349Y006402D01*
X015349Y006842D01*
X015314Y006842D01*
X015034Y006842D02*
X014114Y006842D01*
X014114Y006802D01*
X013614Y006802D02*
X013614Y007302D01*
X014446Y007302D01*
X014446Y007430D01*
X014986Y007430D01*
X016014Y007402D01*
X015114Y009602D01*
X014446Y009005D02*
X012114Y009005D01*
X012114Y008902D01*
X011514Y008902D01*
X011814Y008402D02*
X010790Y008402D01*
X010790Y008691D01*
X010042Y008691D02*
X010040Y008691D01*
X011814Y008402D02*
X011814Y008060D01*
X014446Y008060D01*
X014446Y008375D02*
X013114Y008375D01*
X013114Y008402D01*
X013614Y008690D02*
X013614Y008802D01*
X012314Y008802D01*
X012314Y008402D01*
X013614Y008690D02*
X014446Y008690D01*
X014446Y007745D02*
X014446Y007702D01*
X015314Y007702D01*
X015314Y007802D01*
X015614Y006842D02*
X015614Y006202D01*
X015079Y006202D01*
X014349Y005652D01*
X015064Y005602D02*
X015064Y005802D01*
X015264Y006002D01*
X015764Y006002D01*
X015979Y006216D01*
X015979Y006842D01*
X016264Y006842D02*
X016264Y005752D01*
X016614Y005402D02*
X016614Y006842D01*
X016609Y006842D01*
X016314Y006842D02*
X016294Y006842D01*
X016264Y006842D01*
X015664Y006842D02*
X015614Y006842D01*
X016414Y007502D02*
X017238Y007502D01*
X016914Y007802D02*
X016714Y007802D01*
X016914Y007802D02*
X016614Y008102D01*
X016914Y008002D02*
X016914Y007802D01*
X016914Y006842D02*
X016914Y005802D01*
X017614Y005802D01*
X017664Y004452D01*
X017264Y004452D01*
X016814Y004402D02*
X014864Y004402D01*
X014864Y004152D01*
X012414Y004152D01*
X012414Y003517D01*
X012400Y003517D01*
X012085Y003517D01*
X011770Y003517D02*
X011770Y004152D01*
X012164Y004152D01*
X012164Y004628D01*
X012214Y004628D01*
X011464Y004628D02*
X011455Y004628D01*
X011455Y003517D01*
X011140Y003517D02*
X011114Y003517D01*
X009762Y005876D02*
X009714Y005876D01*
X009762Y006876D02*
X010788Y006876D01*
X011214Y006802D02*
X011214Y007002D01*
X011214Y006802D02*
X012140Y006802D01*
X012888Y006802D02*
X013614Y006802D01*
X016914Y006842D02*
X016923Y006842D01*
X016923Y005786D02*
X017114Y005786D01*
X017114Y005117D02*
X016814Y005117D01*
X016814Y004402D01*
X024314Y006402D02*
X026264Y006402D01*
X026264Y004352D01*
X029914Y004352D01*
X029914Y004978D01*
X030064Y004978D01*
X031814Y006152D02*
X033164Y006152D01*
X033164Y004402D01*
X038714Y004402D01*
X038714Y005288D01*
X038699Y005288D01*
X038707Y006552D02*
X038707Y007418D01*
X038707Y006552D02*
X032514Y006552D01*
X032514Y009102D01*
X033914Y009402D02*
X033914Y011502D01*
X032640Y011502D01*
X032640Y012002D01*
X033388Y012002D02*
X034340Y012002D01*
X035088Y012002D02*
X036240Y012002D01*
X036240Y012102D01*
X036988Y012102D02*
X038240Y012102D01*
X038988Y012102D02*
X039614Y012102D01*
X039614Y002302D01*
X038699Y002302D01*
X038699Y002288D01*
X039414Y003102D02*
X039414Y011502D01*
X035314Y011502D01*
X035314Y010402D01*
X034707Y010402D01*
X034707Y010418D01*
X033914Y009402D02*
X038714Y009402D01*
X038714Y010418D01*
X038707Y010418D01*
X035714Y012902D02*
X035714Y013228D01*
X035740Y013202D01*
X038014Y013202D01*
X037998Y013217D01*
X037998Y015702D01*
X036030Y015702D02*
X035130Y014802D01*
X034114Y014802D01*
X033888Y014576D01*
X033714Y014576D01*
X033714Y013828D02*
X033714Y013252D01*
X033114Y013102D02*
X033114Y015102D01*
X034814Y015102D01*
X035014Y015302D01*
X035014Y015902D01*
X035088Y015902D01*
X034314Y015302D02*
X034314Y018602D01*
X034614Y018602D01*
X033714Y019102D02*
X033714Y015702D01*
X034314Y015302D02*
X032914Y015302D01*
X032914Y013302D01*
X024514Y013302D01*
X024514Y009602D01*
X024914Y009602D01*
X024914Y010202D02*
X024914Y013102D01*
X033114Y013102D01*
X034614Y013467D02*
X034853Y013228D01*
X035714Y013228D01*
X035714Y012902D02*
X025314Y012902D01*
X025314Y008402D01*
X024814Y008002D02*
X030014Y008002D01*
X030014Y008578D01*
X030014Y009326D02*
X030664Y009286D01*
X031114Y011115D02*
X031114Y011302D01*
X033614Y011302D01*
X033614Y007402D01*
X034707Y007402D01*
X034707Y007418D01*
X034699Y006352D02*
X034699Y005288D01*
X034699Y006352D02*
X032014Y006352D01*
X032014Y006602D01*
X027514Y006602D01*
X027514Y007115D01*
X027483Y007115D01*
X027564Y006402D02*
X031814Y006402D01*
X031814Y006152D01*
X034714Y003102D02*
X039414Y003102D01*
X034714Y003102D02*
X034714Y002288D01*
X034699Y002288D01*
X027564Y005115D02*
X027564Y006402D01*
X027564Y005115D02*
X027483Y005115D01*
X024314Y006402D02*
X024314Y008402D01*
X024814Y008002D02*
X024814Y008902D01*
X024314Y008902D01*
X021814Y011302D02*
X021814Y011802D01*
X017238Y010222D02*
X017214Y010222D01*
X017614Y017702D02*
X017614Y017796D01*
X017644Y017796D01*
X027483Y011115D02*
X031114Y011115D01*
X034614Y014136D02*
X036179Y014136D01*
X036614Y013702D01*
X037014Y013702D01*
X035714Y013976D02*
X035553Y014136D01*
X034614Y014136D01*
D70*
X033714Y013252D03*
X037014Y013702D03*
X034814Y016502D03*
X032514Y009102D03*
X025314Y008402D03*
X024314Y008402D03*
X024314Y008902D03*
X024914Y009602D03*
X024914Y010202D03*
X017714Y013902D03*
X019614Y017802D03*
X020014Y019202D03*
X015064Y022252D03*
X013614Y024552D03*
X008264Y019802D03*
X008264Y018452D03*
X007364Y018352D03*
X005464Y017952D03*
X006664Y016752D03*
X007364Y016552D03*
X008764Y016202D03*
X008764Y016952D03*
X006664Y014902D03*
X003814Y017552D03*
X002514Y023202D03*
X002514Y023802D03*
X002514Y024402D03*
X001814Y023202D03*
X011514Y008902D03*
X012314Y008402D03*
X013114Y008402D03*
X014114Y006802D03*
X014114Y006302D03*
X015064Y005602D03*
X016264Y005752D03*
X016264Y005002D03*
X017264Y004452D03*
X016414Y007502D03*
X015314Y007802D03*
X010614Y004602D03*
X020714Y024302D03*
X020714Y029502D03*
D71*
X024814Y020492D02*
X024814Y019502D01*
X025140Y019502D01*
X025140Y019102D01*
X025888Y019102D02*
X026879Y019102D01*
X024864Y020492D02*
X024814Y020492D01*
X021559Y010302D02*
X020914Y010302D01*
X020914Y008233D01*
X020864Y008233D01*
X020864Y007745D01*
X017826Y007745D01*
X017826Y008060D02*
X019199Y008060D01*
X017826Y007430D02*
X020864Y007430D01*
X020864Y005870D01*
X020914Y005870D01*
X020914Y003802D01*
X021569Y003802D01*
X021569Y003792D01*
X021559Y010292D02*
X021559Y010302D01*
X006440Y015902D02*
X006214Y015902D01*
X003691Y023776D02*
X002514Y023776D01*
X002514Y023802D01*
D72*
X002114Y021776D02*
X002114Y020902D01*
X002114Y021776D02*
X003691Y021776D01*
X005014Y021776D01*
X005014Y026276D01*
X003691Y026276D01*
X003014Y026276D01*
X003014Y026102D01*
X002514Y026102D01*
X002514Y026067D01*
X002514Y026736D02*
X002514Y026776D01*
X003691Y026776D01*
X006514Y025276D02*
X006514Y022776D01*
X007455Y022776D01*
X007455Y022276D01*
X007455Y022436D01*
X008614Y022436D01*
X008714Y021802D02*
X009214Y021802D01*
X009214Y021702D01*
X011214Y021702D01*
X011214Y022402D01*
X011249Y022402D01*
X011114Y022402D01*
X011114Y021102D01*
X011114Y019836D01*
X011114Y019167D02*
X011114Y018402D01*
X009414Y018402D01*
X009414Y019102D01*
X009340Y019102D01*
X008488Y019102D01*
X007049Y019102D02*
X007049Y020276D01*
X007455Y020276D01*
X007414Y020276D01*
X007414Y020302D01*
X006514Y020302D01*
X006514Y022276D01*
X007455Y022276D01*
X007455Y021776D02*
X008614Y021776D01*
X008714Y021776D01*
X008714Y021802D01*
X008614Y021776D02*
X008614Y021767D01*
X008614Y020702D01*
X009214Y021802D02*
X009214Y023276D01*
X009214Y023302D01*
X009214Y023276D02*
X007455Y023276D01*
X007455Y023776D01*
X007455Y024276D02*
X009714Y024276D01*
X009714Y024120D01*
X009714Y022402D01*
X010579Y022402D01*
X009114Y024776D02*
X007455Y024776D01*
X007455Y025276D02*
X008214Y025276D01*
X008214Y026802D01*
X008114Y026802D01*
X007514Y026802D01*
X007514Y026776D01*
X007455Y026776D01*
X009114Y026402D02*
X009714Y026402D01*
X009714Y026483D01*
X009714Y028502D01*
X010479Y028502D01*
X009114Y026402D02*
X009114Y024776D01*
X007455Y025276D02*
X006514Y025276D01*
X005514Y020902D02*
X005514Y019102D01*
X006379Y019102D01*
X005488Y019102D01*
X019214Y011302D02*
X021814Y011302D01*
X022229Y011302D01*
X022229Y010292D01*
X022239Y010292D01*
X022239Y003792D01*
X022239Y003202D01*
X019414Y003202D01*
X019414Y004502D01*
X019414Y006352D01*
X018649Y006352D01*
X017979Y006352D02*
X017979Y006842D01*
X017238Y006842D01*
X017238Y007502D01*
X017238Y008375D01*
X017826Y008375D01*
X018529Y008375D01*
X018529Y008552D01*
X019199Y008552D02*
X019199Y008060D01*
X019214Y008552D02*
X019199Y008552D01*
X019214Y008552D02*
X019214Y011302D01*
X010914Y004602D02*
X010614Y004602D01*
X009714Y004602D01*
X009714Y005876D01*
X009762Y006876D02*
X008185Y006876D01*
X008185Y004584D01*
X010914Y004602D02*
X010914Y004002D01*
X011140Y004002D01*
X011140Y003517D01*
X027549Y019102D02*
X027614Y019102D01*
X027614Y019702D01*
X025874Y019702D01*
X025874Y020492D01*
X025864Y020492D01*
X026364Y020492D02*
X026364Y021022D01*
X027727Y021022D01*
X027727Y021802D01*
X032014Y021802D01*
X032014Y026502D01*
X033414Y026502D01*
X033414Y028002D01*
X026314Y028002D01*
X026314Y027502D01*
X021914Y027502D01*
X021914Y025302D01*
X021508Y025302D01*
X021508Y026202D01*
X021508Y027102D01*
X021508Y025302D02*
X021408Y025302D01*
X025614Y023602D02*
X025714Y023602D01*
X025864Y023452D01*
X025864Y022912D01*
X025364Y021402D02*
X025364Y020492D01*
X025364Y021402D02*
X026414Y021402D01*
X026414Y020492D01*
X026364Y020492D01*
X027549Y019102D02*
X027734Y019102D01*
X029514Y019102D01*
X029514Y021022D01*
X030522Y021022D01*
D73*
X033714Y019102D03*
X035514Y019102D03*
X033714Y015702D03*
X034014Y027202D03*
X032814Y027202D03*
X009214Y014102D03*
X007314Y014702D03*
X004514Y013802D03*
X011214Y007002D03*
X014864Y004152D03*
D74*
X017979Y005102D02*
X017979Y006352D01*
X017979Y005102D02*
X018714Y005102D01*
X018714Y002702D01*
X018714Y002357D01*
X019317Y002357D01*
X018714Y002702D02*
X023614Y002702D01*
X023614Y016102D01*
X023514Y016102D01*
X023514Y019002D01*
X023599Y019002D01*
X023599Y019902D01*
X023649Y019902D01*
X023649Y020802D01*
X023649Y021652D01*
X023649Y022552D01*
X023699Y022552D01*
X023699Y023452D01*
X023699Y024202D01*
X023414Y024202D01*
X023414Y025695D01*
X024714Y025695D01*
X024714Y024908D02*
X024814Y024908D01*
X024814Y024102D01*
X025229Y024202D01*
X025314Y024102D01*
X025314Y023602D01*
X025614Y023602D01*
X025364Y022912D02*
X024864Y022912D01*
X024414Y022912D01*
X024414Y023452D01*
X023699Y023452D01*
X023029Y023452D02*
X022979Y023452D01*
X022979Y022552D01*
X022979Y021652D01*
X022979Y020802D01*
X022929Y020802D01*
X022929Y019902D01*
X022979Y019902D01*
X022979Y019002D01*
X021814Y019002D01*
X023599Y019002D02*
X023649Y019002D01*
X023514Y016102D02*
X017614Y016102D01*
X017614Y017702D01*
X017614Y017796D02*
X017614Y029452D01*
X007455Y029452D01*
X007455Y027567D01*
X007455Y026776D01*
X008114Y026802D02*
X008114Y027467D01*
X007455Y027567D02*
X006614Y027567D01*
X006614Y028236D02*
X006614Y028702D01*
X005214Y028702D01*
X005214Y028602D01*
X005214Y029158D01*
X002679Y029158D01*
X003014Y026276D02*
X003014Y025802D01*
X001714Y025802D01*
X008114Y028136D02*
X008114Y028702D01*
X008714Y028702D01*
X011149Y028502D02*
X011914Y028502D01*
X011914Y028002D01*
X022814Y027102D02*
X022814Y023502D01*
X023029Y023502D01*
X023029Y023452D01*
X024749Y026502D02*
X026114Y026502D01*
X026114Y026568D01*
X024714Y026568D01*
X024714Y027102D01*
X022814Y027102D01*
X027734Y019102D02*
X027734Y017982D01*
X030664Y010418D02*
X030664Y009286D01*
X030664Y008617D02*
X030664Y007402D01*
X031707Y007402D01*
X031707Y007418D01*
X031699Y005726D02*
X030064Y005726D01*
X030714Y005102D02*
X030714Y004086D01*
X030714Y003417D02*
X030719Y002287D01*
X031699Y002288D01*
X031699Y005102D02*
X030714Y005102D01*
X031699Y005102D02*
X031699Y005288D01*
X031699Y005726D01*
X027483Y003115D02*
X027483Y003102D01*
X019414Y004146D02*
X019414Y004502D01*
X019317Y004246D02*
X019414Y004146D01*
X030664Y010418D02*
X031707Y010418D01*
X006440Y015902D02*
X005540Y015902D01*
X005549Y016502D01*
X005549Y017328D01*
X006214Y017328D01*
X004714Y017302D02*
X004714Y016502D01*
X004879Y016502D01*
D75*
X025899Y024202D02*
X026114Y023902D01*
X026364Y023902D01*
X026364Y022912D01*
X026114Y023902D02*
X026114Y024835D01*
X025899Y024202D02*
X025999Y024147D01*
X030522Y021022D02*
X032314Y021022D01*
X032314Y019502D01*
D76*
X008614Y020702D03*
X005514Y020902D03*
X002114Y020902D03*
D77*
X027514Y016202D03*
X028514Y015202D03*
X030514Y015202D03*
X031514Y016202D03*
X030514Y017202D03*
X028514Y017202D03*
X032314Y019502D03*
X039264Y029152D03*
D78*
X024609Y029158D03*
X024609Y017800D03*
X002679Y017800D03*
X002679Y029158D03*
D79*
X021814Y019002D03*
X022284Y024277D03*
D80*
X013114Y025902D03*
X027514Y017202D03*
X029514Y017202D03*
X031514Y017202D03*
X031514Y015202D03*
X029514Y015202D03*
X027514Y015202D03*
X033914Y023602D03*
X016714Y002402D03*
M02*
