G75*
G70*
%OFA0B0*%
%FSLAX24Y24*%
%IPPOS*%
%LPD*%
%AMOC8*
5,1,8,0,0,1.08239X$1,22.5*
%
%ADD10R,0.0580X0.0300*%
%ADD11R,0.0300X0.0580*%
%ADD12C,0.1740*%
%ADD13C,0.1025*%
%ADD14R,0.0634X0.0634*%
%ADD15R,0.0674X0.0674*%
%ADD16R,0.0592X0.0671*%
%ADD17R,0.0671X0.0592*%
%ADD18C,0.0600*%
%ADD19R,0.1064X0.0946*%
%ADD20C,0.0434*%
%ADD21R,0.0277X0.0867*%
%ADD22R,0.0710X0.0592*%
%ADD23R,0.0592X0.0710*%
%ADD24C,0.0680*%
%ADD25R,0.0680X0.0680*%
%ADD26OC8,0.0680*%
%ADD27R,0.0340X0.0880*%
%ADD28R,0.0400X0.0240*%
%ADD29R,0.0394X0.0276*%
%ADD30R,0.0240X0.0400*%
%ADD31R,0.0276X0.0394*%
%ADD32R,0.1025X0.1025*%
%ADD33R,0.1655X0.0710*%
%ADD34R,0.0730X0.0730*%
%ADD35R,0.0474X0.0513*%
%ADD36R,0.0492X0.2264*%
%ADD37R,0.0580X0.0380*%
%ADD38R,0.0631X0.1261*%
%ADD39C,0.0640*%
%ADD40R,0.0580X0.0330*%
%ADD41R,0.4252X0.1732*%
%ADD42R,0.4291X0.1693*%
%ADD43R,0.0476X0.0476*%
%ADD44R,0.0555X0.0555*%
%ADD45R,0.0671X0.0671*%
%ADD46R,0.1346X0.1346*%
%ADD47R,0.1582X0.1582*%
%ADD48R,0.0966X0.0966*%
%ADD49R,0.1740X0.1740*%
D10*
X014446Y007430D03*
X014446Y007745D03*
X014446Y008060D03*
X014446Y008375D03*
X014446Y008690D03*
X014446Y009005D03*
X014446Y009320D03*
X014446Y009635D03*
X017826Y009635D03*
X017826Y009320D03*
X017826Y009005D03*
X017826Y008690D03*
X017826Y008375D03*
X017826Y008060D03*
X017826Y007745D03*
X017826Y007430D03*
D11*
X017238Y006842D03*
X016923Y006842D03*
X016609Y006842D03*
X016294Y006842D03*
X015979Y006842D03*
X015664Y006842D03*
X015349Y006842D03*
X015034Y006842D03*
X015034Y010222D03*
X015349Y010222D03*
X015664Y010222D03*
X015979Y010222D03*
X016294Y010222D03*
X016609Y010222D03*
X016923Y010222D03*
X017238Y010222D03*
D12*
X007510Y005834D03*
X002510Y005834D03*
D13*
X001835Y004584D03*
X008185Y004584D03*
D14*
X007210Y009034D03*
X007010Y011834D03*
X006210Y011834D03*
X005810Y012834D03*
X006610Y012834D03*
X007410Y012834D03*
X003810Y011834D03*
X003010Y011834D03*
X002810Y009034D03*
X008644Y017796D03*
X009644Y017796D03*
X010644Y017796D03*
X011644Y017796D03*
X012644Y017796D03*
X013644Y017796D03*
X014644Y017796D03*
X015644Y017796D03*
X016644Y017796D03*
X017644Y017796D03*
X018644Y017796D03*
D15*
X007410Y013834D03*
X006410Y013834D03*
X003610Y013834D03*
X002610Y013834D03*
X036030Y015702D03*
X037998Y015702D03*
X037998Y020702D03*
X036030Y020702D03*
X036030Y025702D03*
X037998Y025702D03*
D16*
X035549Y018002D03*
X034879Y018002D03*
X027549Y019102D03*
X026879Y019102D03*
X023649Y019002D03*
X022979Y019002D03*
X022929Y019902D03*
X023599Y019902D03*
X023649Y020802D03*
X022979Y020802D03*
X022979Y021652D03*
X023649Y021652D03*
X023649Y022552D03*
X022979Y022552D03*
X023029Y023452D03*
X023699Y023452D03*
X025229Y024202D03*
X025899Y024202D03*
X024749Y026502D03*
X024079Y026502D03*
X011149Y028502D03*
X010479Y028502D03*
X010579Y022402D03*
X011249Y022402D03*
X007049Y019102D03*
X006379Y019102D03*
X005549Y016502D03*
X004879Y016502D03*
X017979Y006352D03*
X018649Y006352D03*
X018529Y008552D03*
X019199Y008552D03*
X021559Y010292D03*
X022229Y010292D03*
X014349Y005652D03*
X013679Y005652D03*
X021569Y003792D03*
X022239Y003792D03*
D17*
X017114Y005117D03*
X017114Y005786D03*
X034614Y013467D03*
X034614Y014136D03*
X036214Y022867D03*
X036214Y023536D03*
X011114Y019836D03*
X011114Y019167D03*
X008614Y021767D03*
X008614Y022436D03*
X002514Y026067D03*
X002514Y026736D03*
X006614Y027567D03*
X006614Y028236D03*
X008114Y028136D03*
X008114Y027467D03*
D18*
X039070Y027956D02*
X039590Y027956D01*
X039590Y026956D02*
X039070Y026956D01*
X039070Y025956D02*
X039590Y025956D01*
D19*
X013423Y003418D03*
X013423Y001331D03*
X010116Y001331D03*
X010116Y003418D03*
D20*
X011081Y002631D03*
X012459Y002631D03*
D21*
X012400Y003517D03*
X012085Y003517D03*
X011770Y003517D03*
X011455Y003517D03*
X011140Y003517D03*
D22*
X011464Y004628D03*
X012214Y004628D03*
X012214Y005376D03*
X011464Y005376D03*
X001914Y014928D03*
X001914Y015676D03*
X002914Y015876D03*
X002914Y015128D03*
X006214Y017328D03*
X006214Y018076D03*
X009714Y016476D03*
X009714Y015728D03*
X030014Y009326D03*
X030014Y008578D03*
X030064Y005726D03*
X030064Y004978D03*
X035714Y013228D03*
X035714Y013976D03*
X033714Y013828D03*
X033714Y014576D03*
X035114Y019728D03*
X035114Y020476D03*
X037114Y022828D03*
X037114Y023576D03*
D23*
X035388Y027302D03*
X034640Y027302D03*
X025888Y019102D03*
X025140Y019102D03*
X032640Y012002D03*
X033388Y012002D03*
X034340Y012002D03*
X035088Y012002D03*
X036240Y012102D03*
X036988Y012102D03*
X038240Y012102D03*
X038988Y012102D03*
X035588Y017202D03*
X034840Y017202D03*
X012888Y006802D03*
X012140Y006802D03*
X010788Y007802D03*
X010040Y007802D03*
X010042Y008691D03*
X010790Y008691D03*
X007188Y015902D03*
X006440Y015902D03*
X005488Y019102D03*
X004740Y019102D03*
X007740Y019102D03*
X008488Y019102D03*
X009340Y019102D03*
X010088Y019102D03*
D24*
X031707Y010718D02*
X031707Y010118D01*
X034707Y010118D02*
X034707Y010718D01*
X036707Y010718D02*
X036707Y010118D01*
X038707Y010118D02*
X038707Y010718D01*
X038707Y007718D02*
X038707Y007118D01*
X038699Y005588D02*
X038699Y004988D01*
X036699Y004988D02*
X036699Y005588D01*
X036707Y007118D02*
X036707Y007718D01*
X034707Y007718D02*
X034707Y007118D01*
X034699Y005588D02*
X034699Y004988D01*
X031699Y004988D02*
X031699Y005588D01*
X031707Y007118D02*
X031707Y007718D01*
X031699Y002588D02*
X031699Y001988D01*
X034699Y001988D02*
X034699Y002588D01*
X036699Y002588D02*
X036699Y001988D01*
X038699Y001988D02*
X038699Y002588D01*
D25*
X012983Y013481D03*
D26*
X011983Y013481D03*
X011983Y012481D03*
X012983Y012481D03*
X010983Y012481D03*
X010983Y013481D03*
D27*
X024864Y020492D03*
X025364Y020492D03*
X025864Y020492D03*
X026364Y020492D03*
X026364Y022912D03*
X025864Y022912D03*
X025364Y022912D03*
X024864Y022912D03*
D28*
X021408Y025302D03*
X020620Y025302D03*
X020720Y026202D03*
X021508Y026202D03*
X021508Y027102D03*
X020720Y027102D03*
D29*
X020720Y027082D03*
X021508Y027082D03*
X021508Y026182D03*
X020720Y026182D03*
X020620Y025282D03*
X021408Y025282D03*
D30*
X024714Y024908D03*
X024714Y025695D03*
X009714Y026483D03*
X009714Y024120D03*
X020864Y008233D03*
X020864Y005870D03*
D31*
X024694Y024908D03*
X024694Y025695D03*
D32*
X026114Y024835D03*
X026114Y026568D03*
X021814Y011802D03*
X022714Y004702D03*
D33*
X027727Y021022D03*
X030522Y021022D03*
D34*
X027483Y011115D03*
X027483Y009115D03*
X027483Y007115D03*
X027483Y005115D03*
X027483Y003115D03*
X004714Y017302D03*
X011114Y021102D03*
X011914Y028002D03*
X008714Y028702D03*
X005214Y028602D03*
X001714Y025802D03*
D35*
X030664Y009286D03*
X030664Y008617D03*
X030714Y004086D03*
X030714Y003417D03*
D36*
X020864Y005181D03*
X020864Y008922D03*
X009714Y023431D03*
X009714Y027172D03*
D37*
X007455Y026776D03*
X007455Y026276D03*
X007455Y025776D03*
X007455Y025276D03*
X007455Y024776D03*
X007455Y024276D03*
X007455Y023776D03*
X007455Y023276D03*
X007455Y022776D03*
X007455Y022276D03*
X007455Y021776D03*
X007455Y021276D03*
X007455Y020776D03*
X007455Y020276D03*
X003691Y020276D03*
X003691Y020776D03*
X003691Y021276D03*
X003691Y021776D03*
X003691Y022276D03*
X003691Y022776D03*
X003691Y023276D03*
X003691Y023776D03*
X003691Y024276D03*
X003691Y024776D03*
X003691Y025276D03*
X003691Y025776D03*
X003691Y026276D03*
X003691Y026776D03*
D38*
X019317Y004246D03*
X019317Y002357D03*
D39*
X010042Y005876D02*
X009482Y005876D01*
X009482Y006876D02*
X010042Y006876D01*
D40*
X029283Y023989D03*
X029204Y026017D03*
D41*
X029243Y023753D03*
D42*
X029224Y026371D03*
D43*
X020714Y024302D03*
X015064Y022252D03*
X013614Y024552D03*
X008264Y019802D03*
X008264Y018452D03*
X007364Y018352D03*
X005464Y017952D03*
X006664Y016752D03*
X007364Y016552D03*
X008764Y016202D03*
X008764Y016952D03*
X006664Y014902D03*
X003814Y017552D03*
X002514Y023202D03*
X002514Y023802D03*
X002514Y024402D03*
X001814Y023202D03*
X017714Y013902D03*
X019614Y017802D03*
X020014Y019202D03*
X024914Y010202D03*
X024914Y009602D03*
X024314Y008902D03*
X024314Y008402D03*
X025314Y008402D03*
X032514Y009102D03*
X033714Y013252D03*
X037014Y013702D03*
X034814Y016502D03*
X020714Y029502D03*
X011514Y008902D03*
X012314Y008402D03*
X013114Y008402D03*
X014114Y006802D03*
X014114Y006302D03*
X015064Y005602D03*
X016264Y005752D03*
X016264Y005002D03*
X017264Y004452D03*
X016414Y007502D03*
X015314Y007802D03*
X010614Y004602D03*
D44*
X011214Y007002D03*
X014864Y004152D03*
X004514Y013802D03*
X007314Y014702D03*
X009214Y014102D03*
X032814Y027202D03*
X034014Y027202D03*
X033714Y019102D03*
X035514Y019102D03*
X033714Y015702D03*
D45*
X008614Y020702D03*
X005514Y020902D03*
X002114Y020902D03*
D46*
X027514Y016202D03*
X028514Y015202D03*
X030514Y015202D03*
X031514Y016202D03*
X030514Y017202D03*
X028514Y017202D03*
X032314Y019502D03*
X039264Y029152D03*
D47*
X024609Y029158D03*
X024609Y017800D03*
X002679Y017800D03*
X002679Y029158D03*
D48*
X021814Y019002D03*
X022284Y024277D03*
D49*
X013114Y025902D03*
X027514Y017202D03*
X029514Y017202D03*
X031514Y017202D03*
X031514Y015202D03*
X029514Y015202D03*
X027514Y015202D03*
X033914Y023602D03*
X016714Y002402D03*
M02*
