G75*
G70*
%OFA0B0*%
%FSLAX24Y24*%
%IPPOS*%
%LPD*%
%AMOC8*
5,1,8,0,0,1.08239X$1,22.5*
%
%ADD10R,0.0500X0.0220*%
%ADD11R,0.0220X0.0500*%
%ADD12R,0.0512X0.0591*%
%ADD13R,0.0591X0.0512*%
%ADD14R,0.0984X0.0866*%
%ADD15R,0.0197X0.0787*%
%ADD16R,0.0512X0.0630*%
%ADD17R,0.0630X0.0512*%
%ADD18R,0.0260X0.0800*%
%ADD19R,0.0320X0.0160*%
%ADD20R,0.0160X0.0320*%
%ADD21R,0.0945X0.0945*%
%ADD22R,0.1575X0.0630*%
%ADD23R,0.0394X0.0433*%
%ADD24R,0.0394X0.2165*%
%ADD25R,0.0500X0.0250*%
%ADD26C,0.0050*%
%ADD27R,0.0500X0.0300*%
%ADD28R,0.0551X0.1181*%
D10*
X014446Y007430D03*
X014446Y007745D03*
X014446Y008060D03*
X014446Y008375D03*
X014446Y008690D03*
X014446Y009005D03*
X014446Y009320D03*
X014446Y009635D03*
X017826Y009635D03*
X017826Y009320D03*
X017826Y009005D03*
X017826Y008690D03*
X017826Y008375D03*
X017826Y008060D03*
X017826Y007745D03*
X017826Y007430D03*
D11*
X017238Y006842D03*
X016923Y006842D03*
X016609Y006842D03*
X016294Y006842D03*
X015979Y006842D03*
X015664Y006842D03*
X015349Y006842D03*
X015034Y006842D03*
X015034Y010222D03*
X015349Y010222D03*
X015664Y010222D03*
X015979Y010222D03*
X016294Y010222D03*
X016609Y010222D03*
X016923Y010222D03*
X017238Y010222D03*
D12*
X018529Y008552D03*
X019199Y008552D03*
X021559Y010292D03*
X022229Y010292D03*
X018649Y006352D03*
X017979Y006352D03*
X015749Y005752D03*
X015079Y005752D03*
X021569Y003792D03*
X022239Y003792D03*
X005549Y016502D03*
X004879Y016502D03*
X006379Y019102D03*
X007049Y019102D03*
X010579Y022402D03*
X011249Y022402D03*
X011149Y028502D03*
X010479Y028502D03*
X023029Y023452D03*
X023699Y023452D03*
X023649Y022552D03*
X022979Y022552D03*
X022979Y021652D03*
X023649Y021652D03*
X023649Y020802D03*
X022979Y020802D03*
X022929Y019902D03*
X023599Y019902D03*
X023649Y019002D03*
X022979Y019002D03*
X026879Y019102D03*
X027549Y019102D03*
X025899Y024202D03*
X025229Y024202D03*
X024749Y026502D03*
X024079Y026502D03*
X034879Y018002D03*
X035549Y018002D03*
D13*
X034614Y014136D03*
X034614Y013467D03*
X036214Y022867D03*
X036214Y023536D03*
X017114Y005786D03*
X017114Y005117D03*
X011114Y019167D03*
X011114Y019836D03*
X008614Y021767D03*
X008614Y022436D03*
X002514Y026067D03*
X002514Y026736D03*
X006614Y027567D03*
X006614Y028236D03*
X008114Y028136D03*
X008114Y027467D03*
D14*
X010116Y001331D03*
X010116Y003418D03*
X013423Y003418D03*
X013423Y001331D03*
D15*
X012400Y003517D03*
X012085Y003517D03*
X011770Y003517D03*
X011455Y003517D03*
X011140Y003517D03*
D16*
X011440Y004902D03*
X012188Y004902D03*
X011840Y005702D03*
X012588Y005702D03*
X012888Y006802D03*
X012140Y006802D03*
X010788Y007802D03*
X010040Y007802D03*
X010042Y008691D03*
X010790Y008691D03*
X007188Y015902D03*
X006440Y015902D03*
X005488Y019102D03*
X004740Y019102D03*
X007740Y019102D03*
X008488Y019102D03*
X009340Y019102D03*
X010088Y019102D03*
X025140Y019102D03*
X025888Y019102D03*
X034840Y017202D03*
X035588Y017202D03*
X036240Y012102D03*
X036988Y012102D03*
X038240Y012102D03*
X038988Y012102D03*
X035088Y012002D03*
X034340Y012002D03*
X033388Y012002D03*
X032640Y012002D03*
X034640Y027302D03*
X035388Y027302D03*
D17*
X037114Y023576D03*
X037114Y022828D03*
X035114Y020476D03*
X035114Y019728D03*
X033714Y014576D03*
X033714Y013828D03*
X035714Y013976D03*
X035714Y013228D03*
X030014Y009326D03*
X030014Y008578D03*
X030064Y005726D03*
X030064Y004978D03*
X009714Y015728D03*
X009714Y016476D03*
X006214Y017328D03*
X006214Y018076D03*
X002914Y015876D03*
X002914Y015128D03*
X001914Y014928D03*
X001914Y015676D03*
D18*
X024864Y020492D03*
X025364Y020492D03*
X025864Y020492D03*
X026364Y020492D03*
X026364Y022912D03*
X025864Y022912D03*
X025364Y022912D03*
X024864Y022912D03*
D19*
X021408Y025302D03*
X020620Y025302D03*
X020720Y026202D03*
X021508Y026202D03*
X021508Y027102D03*
X020720Y027102D03*
D20*
X024714Y025695D03*
X024714Y024908D03*
X009714Y024120D03*
X009714Y026483D03*
X020864Y008233D03*
X020864Y005870D03*
D21*
X026114Y024835D03*
X026114Y026568D03*
D22*
X027727Y021022D03*
X030522Y021022D03*
D23*
X030664Y009286D03*
X030664Y008617D03*
X030714Y004086D03*
X030714Y003417D03*
D24*
X020864Y005181D03*
X020864Y008922D03*
X009714Y023431D03*
X009714Y027172D03*
D25*
X029343Y026017D03*
X029343Y024147D03*
D26*
X027643Y023231D02*
X027643Y023131D01*
X031043Y023131D01*
X031043Y023231D01*
X031143Y023231D01*
X031143Y023331D01*
X031243Y023331D01*
X031243Y023431D01*
X031343Y023431D01*
X031343Y024631D01*
X027343Y024631D01*
X027343Y023431D01*
X027443Y023431D01*
X027443Y023331D01*
X027543Y023331D01*
X027543Y023231D01*
X027643Y023231D01*
X027643Y023211D02*
X031043Y023211D01*
X031043Y023163D02*
X027643Y023163D01*
X027543Y023260D02*
X031143Y023260D01*
X031143Y023308D02*
X027543Y023308D01*
X027443Y023357D02*
X031243Y023357D01*
X031243Y023405D02*
X027443Y023405D01*
X027343Y023454D02*
X031343Y023454D01*
X031343Y023502D02*
X027343Y023502D01*
X027343Y023551D02*
X031343Y023551D01*
X031343Y023599D02*
X027343Y023599D01*
X027343Y023648D02*
X031343Y023648D01*
X031343Y023697D02*
X027343Y023697D01*
X027343Y023745D02*
X031343Y023745D01*
X031343Y023794D02*
X027343Y023794D01*
X027343Y023842D02*
X031343Y023842D01*
X031343Y023891D02*
X027343Y023891D01*
X027343Y023939D02*
X031343Y023939D01*
X031343Y023988D02*
X027343Y023988D01*
X027343Y024036D02*
X031343Y024036D01*
X031343Y024085D02*
X027343Y024085D01*
X027343Y024133D02*
X031343Y024133D01*
X031343Y024182D02*
X027343Y024182D01*
X027343Y024231D02*
X031343Y024231D01*
X031343Y024279D02*
X027343Y024279D01*
X027343Y024328D02*
X031343Y024328D01*
X031343Y024376D02*
X027343Y024376D01*
X027343Y024425D02*
X031343Y024425D01*
X031343Y024473D02*
X027343Y024473D01*
X027343Y024522D02*
X031343Y024522D01*
X031343Y024570D02*
X027343Y024570D01*
X027343Y024619D02*
X031343Y024619D01*
X031343Y025531D02*
X031343Y026831D01*
X031243Y026831D01*
X031243Y026931D01*
X031143Y026931D01*
X031143Y027031D01*
X031043Y027031D01*
X031043Y027131D01*
X027643Y027131D01*
X027643Y027031D01*
X027543Y027031D01*
X027543Y026931D01*
X027443Y026931D01*
X027443Y026831D01*
X027343Y026831D01*
X027343Y025631D01*
X027343Y025531D01*
X031343Y025531D01*
X031343Y025541D02*
X027343Y025541D01*
X027343Y025590D02*
X031343Y025590D01*
X031343Y025638D02*
X027343Y025638D01*
X027343Y025687D02*
X031343Y025687D01*
X031343Y025735D02*
X027343Y025735D01*
X027343Y025784D02*
X031343Y025784D01*
X031343Y025832D02*
X027343Y025832D01*
X027343Y025881D02*
X031343Y025881D01*
X031343Y025930D02*
X027343Y025930D01*
X027343Y025978D02*
X031343Y025978D01*
X031343Y026027D02*
X027343Y026027D01*
X027343Y026075D02*
X031343Y026075D01*
X031343Y026124D02*
X027343Y026124D01*
X027343Y026172D02*
X031343Y026172D01*
X031343Y026221D02*
X027343Y026221D01*
X027343Y026269D02*
X031343Y026269D01*
X031343Y026318D02*
X027343Y026318D01*
X027343Y026366D02*
X031343Y026366D01*
X031343Y026415D02*
X027343Y026415D01*
X027343Y026464D02*
X031343Y026464D01*
X031343Y026512D02*
X027343Y026512D01*
X027343Y026561D02*
X031343Y026561D01*
X031343Y026609D02*
X027343Y026609D01*
X027343Y026658D02*
X031343Y026658D01*
X031343Y026706D02*
X027343Y026706D01*
X027343Y026755D02*
X031343Y026755D01*
X031343Y026803D02*
X027343Y026803D01*
X027443Y026852D02*
X031243Y026852D01*
X031243Y026900D02*
X027443Y026900D01*
X027543Y026949D02*
X031143Y026949D01*
X031143Y026997D02*
X027543Y026997D01*
X027643Y027046D02*
X031043Y027046D01*
X031043Y027095D02*
X027643Y027095D01*
D27*
X007455Y026776D03*
X007455Y026276D03*
X007455Y025776D03*
X007455Y025276D03*
X007455Y024776D03*
X007455Y024276D03*
X007455Y023776D03*
X007455Y023276D03*
X007455Y022776D03*
X007455Y022276D03*
X007455Y021776D03*
X007455Y021276D03*
X007455Y020776D03*
X007455Y020276D03*
X003691Y020276D03*
X003691Y020776D03*
X003691Y021276D03*
X003691Y021776D03*
X003691Y022276D03*
X003691Y022776D03*
X003691Y023276D03*
X003691Y023776D03*
X003691Y024276D03*
X003691Y024776D03*
X003691Y025276D03*
X003691Y025776D03*
X003691Y026276D03*
X003691Y026776D03*
D28*
X019317Y004246D03*
X019317Y002357D03*
M02*
