G75*
G70*
%OFA0B0*%
%FSLAX24Y24*%
%IPPOS*%
%LPD*%
%AMOC8*
5,1,8,0,0,1.08239X$1,22.5*
%
%ADD10C,0.0060*%
%ADD11C,0.0050*%
%ADD12C,0.0040*%
%ADD13R,0.0500X0.1000*%
%ADD14C,0.0100*%
%ADD15C,0.0020*%
%ADD16C,0.0080*%
D10*
X009262Y005476D02*
X009262Y006276D01*
X009362Y006376D01*
X009262Y006476D01*
X009262Y007276D01*
X009362Y007376D01*
X010162Y007376D01*
X010262Y007276D01*
X010262Y006476D01*
X010162Y006376D01*
X010262Y006276D01*
X010262Y005476D01*
X010162Y005376D01*
X009362Y005376D01*
X009262Y005476D01*
X014756Y007152D02*
X017376Y007152D01*
X017516Y007292D01*
X017516Y009912D01*
X014756Y009912D01*
X014756Y007152D01*
X017075Y007452D02*
X017077Y007475D01*
X017083Y007498D01*
X017092Y007519D01*
X017105Y007539D01*
X017121Y007556D01*
X017139Y007570D01*
X017159Y007581D01*
X017181Y007589D01*
X017204Y007593D01*
X017228Y007593D01*
X017251Y007589D01*
X017273Y007581D01*
X017293Y007570D01*
X017311Y007556D01*
X017327Y007539D01*
X017340Y007519D01*
X017349Y007498D01*
X017355Y007475D01*
X017357Y007452D01*
X017355Y007429D01*
X017349Y007406D01*
X017340Y007385D01*
X017327Y007365D01*
X017311Y007348D01*
X017293Y007334D01*
X017273Y007323D01*
X017251Y007315D01*
X017228Y007311D01*
X017204Y007311D01*
X017181Y007315D01*
X017159Y007323D01*
X017139Y007334D01*
X017121Y007348D01*
X017105Y007365D01*
X017092Y007385D01*
X017083Y007406D01*
X017077Y007429D01*
X017075Y007452D01*
X031207Y006918D02*
X031207Y008418D01*
X031707Y008418D01*
X031707Y009418D01*
X031207Y009418D01*
X031207Y008418D01*
X031957Y008668D02*
X031957Y009168D01*
X032457Y009168D01*
X032957Y009168D01*
X031957Y008668D01*
X032457Y008668D01*
X032957Y008668D01*
X032957Y009168D01*
X032457Y009168D02*
X032457Y010418D01*
X032107Y010418D01*
X031207Y010918D02*
X031207Y009418D01*
X032457Y008668D02*
X032457Y007418D01*
X032107Y007418D01*
X031207Y006918D02*
X039207Y006918D01*
X039207Y010918D01*
X031207Y010918D01*
X034707Y010018D02*
X034707Y009668D01*
X037707Y009668D01*
X037707Y010168D01*
X037457Y010418D01*
X037337Y010548D01*
X037457Y010418D02*
X037137Y010418D01*
X037957Y010418D02*
X038287Y010418D01*
X037707Y008168D02*
X037707Y007668D01*
X037457Y007418D01*
X037337Y007288D01*
X037457Y007418D02*
X037137Y007418D01*
X037957Y007418D02*
X038287Y007418D01*
X037707Y008168D02*
X034707Y008168D01*
X034707Y007818D01*
X032449Y005288D02*
X032099Y005288D01*
X032449Y005288D02*
X032449Y004038D01*
X032949Y004038D01*
X031949Y003538D01*
X032449Y003538D01*
X032949Y003538D01*
X032949Y004038D01*
X032449Y004038D02*
X031949Y004038D01*
X031949Y003538D01*
X031699Y003288D02*
X031199Y003288D01*
X031199Y001788D01*
X039199Y001788D01*
X039199Y005788D01*
X031199Y005788D01*
X031199Y004288D01*
X031199Y003288D01*
X031699Y003288D02*
X031699Y004288D01*
X031199Y004288D01*
X032449Y003538D02*
X032449Y002288D01*
X032099Y002288D01*
X034699Y002688D02*
X034699Y003038D01*
X037699Y003038D01*
X037699Y002538D01*
X037449Y002288D01*
X037329Y002158D01*
X037449Y002288D02*
X037129Y002288D01*
X037949Y002288D02*
X038279Y002288D01*
X037699Y004538D02*
X037699Y005038D01*
X037449Y005288D01*
X037329Y005418D01*
X037449Y005288D02*
X037129Y005288D01*
X037949Y005288D02*
X038279Y005288D01*
X037699Y004538D02*
X034699Y004538D01*
X034699Y004888D01*
X026614Y021002D02*
X026614Y022402D01*
X026612Y022419D01*
X026608Y022436D01*
X026601Y022452D01*
X026591Y022466D01*
X026578Y022479D01*
X026564Y022489D01*
X026548Y022496D01*
X026531Y022500D01*
X026514Y022502D01*
X026164Y022502D02*
X026064Y022502D01*
X025664Y022502D02*
X025564Y022502D01*
X025164Y022502D02*
X025064Y022502D01*
X024714Y022502D02*
X024697Y022500D01*
X024680Y022496D01*
X024664Y022489D01*
X024650Y022479D01*
X024637Y022466D01*
X024627Y022452D01*
X024620Y022436D01*
X024616Y022419D01*
X024614Y022402D01*
X024614Y021002D01*
X024616Y020985D01*
X024620Y020968D01*
X024627Y020952D01*
X024637Y020938D01*
X024650Y020925D01*
X024664Y020915D01*
X024680Y020908D01*
X024697Y020904D01*
X024714Y020902D01*
X025064Y020902D02*
X025164Y020902D01*
X025564Y020902D02*
X025664Y020902D01*
X026064Y020902D02*
X026164Y020902D01*
X026514Y020902D02*
X026531Y020904D01*
X026548Y020908D01*
X026564Y020915D01*
X026578Y020925D01*
X026591Y020938D01*
X026601Y020952D01*
X026608Y020968D01*
X026612Y020985D01*
X026614Y021002D01*
X026164Y022102D02*
X026166Y022126D01*
X026172Y022150D01*
X026181Y022172D01*
X026194Y022192D01*
X026210Y022210D01*
X026229Y022225D01*
X026250Y022238D01*
X026272Y022246D01*
X026296Y022251D01*
X026320Y022252D01*
X026344Y022249D01*
X026367Y022242D01*
X026389Y022232D01*
X026409Y022218D01*
X026426Y022201D01*
X026441Y022182D01*
X026452Y022161D01*
X026460Y022138D01*
X026464Y022114D01*
X026464Y022090D01*
X026460Y022066D01*
X026452Y022043D01*
X026441Y022022D01*
X026426Y022003D01*
X026409Y021986D01*
X026389Y021972D01*
X026367Y021962D01*
X026344Y021955D01*
X026320Y021952D01*
X026296Y021953D01*
X026272Y021958D01*
X026250Y021966D01*
X026229Y021979D01*
X026210Y021994D01*
X026194Y022012D01*
X026181Y022032D01*
X026172Y022054D01*
X026166Y022078D01*
X026164Y022102D01*
X007035Y020046D02*
X007035Y026996D01*
X004111Y026996D01*
X004111Y020046D01*
X007035Y020046D01*
X004123Y026626D02*
X004125Y026655D01*
X004131Y026683D01*
X004140Y026710D01*
X004154Y026735D01*
X004170Y026759D01*
X004190Y026779D01*
X004212Y026798D01*
X004236Y026812D01*
X004263Y026824D01*
X004290Y026832D01*
X004319Y026836D01*
X004347Y026836D01*
X004376Y026832D01*
X004403Y026824D01*
X004430Y026812D01*
X004454Y026798D01*
X004476Y026779D01*
X004496Y026759D01*
X004512Y026735D01*
X004526Y026710D01*
X004535Y026683D01*
X004541Y026655D01*
X004543Y026626D01*
X004541Y026597D01*
X004535Y026569D01*
X004526Y026542D01*
X004512Y026517D01*
X004496Y026493D01*
X004476Y026473D01*
X004454Y026454D01*
X004430Y026440D01*
X004403Y026428D01*
X004376Y026420D01*
X004347Y026416D01*
X004319Y026416D01*
X004290Y026420D01*
X004263Y026428D01*
X004236Y026440D01*
X004212Y026454D01*
X004190Y026473D01*
X004170Y026493D01*
X004154Y026517D01*
X004140Y026542D01*
X004131Y026569D01*
X004125Y026597D01*
X004123Y026626D01*
D11*
X039768Y027910D02*
X039824Y027883D01*
X039878Y027852D01*
X039930Y027818D01*
X039980Y027781D01*
X039980Y026131D01*
X039380Y026403D02*
X039380Y026509D01*
X039777Y026006D02*
X039831Y026033D01*
X039882Y026063D01*
X039932Y026096D01*
X039980Y026131D01*
X038883Y026006D02*
X038826Y026035D01*
X038770Y026068D01*
X038717Y026103D01*
X038666Y026143D01*
X038618Y026185D01*
X038572Y026230D01*
X038529Y026277D01*
X038489Y026327D01*
X038452Y026380D01*
X038419Y026435D01*
X038388Y026491D01*
X038362Y026550D01*
X038339Y026610D01*
X038319Y026671D01*
X038304Y026733D01*
X038292Y026796D01*
X038284Y026860D01*
X038280Y026924D01*
X038280Y026988D01*
X038284Y027052D01*
X038292Y027116D01*
X038304Y027179D01*
X038319Y027241D01*
X038339Y027302D01*
X038362Y027362D01*
X038388Y027421D01*
X038419Y027477D01*
X038452Y027532D01*
X038489Y027585D01*
X038529Y027635D01*
X038572Y027682D01*
X038618Y027727D01*
X038666Y027769D01*
X038717Y027809D01*
X038770Y027844D01*
X038826Y027877D01*
X038883Y027906D01*
X039380Y027509D02*
X039380Y027403D01*
D12*
X030738Y022636D02*
X030738Y021416D01*
X030738Y020628D02*
X030738Y019408D01*
X028416Y019408D01*
X027510Y020313D01*
X027510Y020628D01*
X027510Y021416D02*
X027510Y021731D01*
X028416Y022636D01*
X030738Y022636D01*
X030640Y021376D02*
X030620Y021453D01*
X030597Y021528D01*
X030569Y021602D01*
X030538Y021674D01*
X030503Y021745D01*
X030465Y021814D01*
X030423Y021880D01*
X030378Y021945D01*
X030330Y022007D01*
X030278Y022067D01*
X030224Y022124D01*
X030167Y022178D01*
X030107Y022230D01*
X030045Y022278D01*
X029980Y022323D01*
X029913Y022364D01*
X029844Y022402D01*
X029773Y022437D01*
X029701Y022468D01*
X029627Y022496D01*
X029552Y022519D01*
X029476Y022539D01*
X029398Y022555D01*
X029320Y022567D01*
X029242Y022575D01*
X029163Y022579D01*
X029085Y022579D01*
X029006Y022575D01*
X028928Y022567D01*
X028850Y022555D01*
X028772Y022539D01*
X028696Y022519D01*
X028621Y022496D01*
X028547Y022468D01*
X028475Y022437D01*
X028404Y022402D01*
X028335Y022364D01*
X028268Y022323D01*
X028203Y022278D01*
X028141Y022230D01*
X028081Y022178D01*
X028024Y022124D01*
X027970Y022067D01*
X027918Y022007D01*
X027870Y021945D01*
X027825Y021880D01*
X027783Y021814D01*
X027745Y021745D01*
X027710Y021674D01*
X027679Y021602D01*
X027651Y021528D01*
X027628Y021453D01*
X027608Y021376D01*
X027608Y020668D02*
X027628Y020591D01*
X027651Y020516D01*
X027679Y020442D01*
X027710Y020370D01*
X027745Y020299D01*
X027783Y020230D01*
X027825Y020164D01*
X027870Y020099D01*
X027918Y020037D01*
X027970Y019977D01*
X028024Y019920D01*
X028081Y019866D01*
X028141Y019814D01*
X028203Y019766D01*
X028268Y019721D01*
X028335Y019680D01*
X028404Y019642D01*
X028475Y019607D01*
X028547Y019576D01*
X028621Y019548D01*
X028696Y019525D01*
X028772Y019505D01*
X028850Y019489D01*
X028928Y019477D01*
X029006Y019469D01*
X029085Y019465D01*
X029163Y019465D01*
X029242Y019469D01*
X029320Y019477D01*
X029398Y019489D01*
X029476Y019505D01*
X029552Y019525D01*
X029627Y019548D01*
X029701Y019576D01*
X029773Y019607D01*
X029844Y019642D01*
X029913Y019680D01*
X029980Y019721D01*
X030045Y019766D01*
X030107Y019814D01*
X030167Y019866D01*
X030224Y019920D01*
X030278Y019977D01*
X030330Y020037D01*
X030378Y020099D01*
X030423Y020164D01*
X030465Y020230D01*
X030503Y020299D01*
X030538Y020370D01*
X030569Y020442D01*
X030597Y020516D01*
X030620Y020591D01*
X030640Y020668D01*
X026864Y024812D02*
X026864Y026592D01*
X025364Y026592D02*
X025364Y024812D01*
X020597Y004581D02*
X019691Y004581D01*
X018943Y004581D02*
X018038Y004581D01*
X018038Y002691D01*
X018707Y002022D01*
X018943Y002022D01*
X019691Y002022D02*
X019927Y002022D01*
X020597Y002691D01*
X020597Y004581D01*
X018943Y004463D02*
X018879Y004441D01*
X018816Y004414D01*
X018754Y004384D01*
X018695Y004351D01*
X018637Y004315D01*
X018581Y004275D01*
X018528Y004232D01*
X018477Y004187D01*
X018429Y004139D01*
X018384Y004088D01*
X018341Y004034D01*
X018302Y003978D01*
X018265Y003921D01*
X018232Y003861D01*
X018203Y003799D01*
X018177Y003736D01*
X018154Y003672D01*
X018135Y003606D01*
X018120Y003539D01*
X018109Y003472D01*
X018101Y003404D01*
X018097Y003336D01*
X018097Y003268D01*
X018101Y003200D01*
X018109Y003132D01*
X018120Y003065D01*
X018135Y002998D01*
X018154Y002932D01*
X018177Y002868D01*
X018203Y002805D01*
X018232Y002743D01*
X018265Y002683D01*
X018302Y002626D01*
X018341Y002570D01*
X018384Y002516D01*
X018429Y002465D01*
X018477Y002417D01*
X018528Y002372D01*
X018581Y002329D01*
X018637Y002289D01*
X018695Y002253D01*
X018754Y002220D01*
X018816Y002190D01*
X018879Y002163D01*
X018943Y002141D01*
X019691Y002141D02*
X019755Y002163D01*
X019818Y002190D01*
X019880Y002220D01*
X019939Y002253D01*
X019997Y002289D01*
X020053Y002329D01*
X020106Y002372D01*
X020157Y002417D01*
X020205Y002465D01*
X020250Y002516D01*
X020293Y002570D01*
X020332Y002626D01*
X020369Y002683D01*
X020402Y002743D01*
X020431Y002805D01*
X020457Y002868D01*
X020480Y002932D01*
X020499Y002998D01*
X020514Y003065D01*
X020525Y003132D01*
X020533Y003200D01*
X020537Y003268D01*
X020537Y003336D01*
X020533Y003404D01*
X020525Y003472D01*
X020514Y003539D01*
X020499Y003606D01*
X020480Y003672D01*
X020457Y003736D01*
X020431Y003799D01*
X020402Y003861D01*
X020369Y003921D01*
X020332Y003978D01*
X020293Y004034D01*
X020250Y004088D01*
X020205Y004139D01*
X020157Y004187D01*
X020106Y004232D01*
X020053Y004275D01*
X019997Y004315D01*
X019939Y004351D01*
X019880Y004384D01*
X019818Y004414D01*
X019755Y004441D01*
X019691Y004463D01*
X013699Y003574D02*
X013699Y003574D01*
X013700Y003575D02*
X013699Y003588D01*
X013694Y003601D01*
X013687Y003613D01*
X013677Y003623D01*
X013665Y003630D01*
X013652Y003635D01*
X013639Y003636D01*
X013638Y003635D02*
X013269Y003635D01*
X013269Y001554D01*
X013638Y001554D01*
X013639Y001555D02*
X013652Y001554D01*
X013665Y001549D01*
X013677Y001542D01*
X013687Y001532D01*
X013694Y001520D01*
X013699Y001507D01*
X013700Y001494D01*
X013699Y001494D02*
X013699Y001494D01*
X013697Y001479D01*
X013692Y001465D01*
X013685Y001453D01*
X013674Y001442D01*
X013662Y001435D01*
X013648Y001430D01*
X013633Y001428D01*
X013633Y001427D02*
X013572Y001427D01*
X013555Y001425D01*
X013538Y001420D01*
X013523Y001412D01*
X013510Y001401D01*
X013499Y001388D01*
X013491Y001373D01*
X013486Y001356D01*
X013484Y001339D01*
X013484Y001328D01*
X013486Y001311D01*
X013491Y001294D01*
X013499Y001279D01*
X013510Y001266D01*
X013523Y001255D01*
X013538Y001247D01*
X013555Y001242D01*
X013572Y001240D01*
X013638Y001240D01*
X013652Y001238D01*
X013664Y001234D01*
X013676Y001227D01*
X013686Y001217D01*
X013693Y001205D01*
X013697Y001193D01*
X013699Y001179D01*
X013697Y001164D01*
X013692Y001150D01*
X013685Y001138D01*
X013674Y001127D01*
X013662Y001120D01*
X013648Y001115D01*
X013633Y001113D01*
X013291Y001113D01*
X012833Y000875D02*
X012921Y002217D01*
X012923Y002229D01*
X012929Y002240D01*
X012937Y002249D01*
X012947Y002256D01*
X012958Y002260D01*
X012970Y002261D01*
X013246Y002261D01*
X012551Y002206D02*
X012639Y000870D01*
X012642Y000851D01*
X012649Y000834D01*
X012658Y000818D01*
X012671Y000804D01*
X012686Y000793D01*
X012702Y000785D01*
X012720Y000780D01*
X012739Y000779D01*
X012757Y000781D01*
X012775Y000787D01*
X012791Y000796D01*
X012805Y000808D01*
X012817Y000823D01*
X012826Y000839D01*
X012831Y000857D01*
X012833Y000875D01*
X012639Y000600D02*
X012617Y000602D01*
X012596Y000607D01*
X012576Y000615D01*
X012558Y000626D01*
X012541Y000640D01*
X012527Y000657D01*
X012516Y000675D01*
X012508Y000695D01*
X012503Y000716D01*
X012501Y000738D01*
X012501Y000754D01*
X012435Y002200D01*
X012436Y002214D01*
X012440Y002228D01*
X012448Y002239D01*
X012458Y002249D01*
X012470Y002256D01*
X012483Y002260D01*
X012497Y002261D01*
X012511Y002258D01*
X012524Y002252D01*
X012534Y002244D01*
X012543Y002232D01*
X012549Y002220D01*
X012551Y002206D01*
X012198Y002233D02*
X012281Y000660D01*
X012280Y000660D02*
X012278Y000647D01*
X012272Y000634D01*
X012263Y000623D01*
X012252Y000615D01*
X012239Y000610D01*
X012225Y000608D01*
X012211Y000610D01*
X012198Y000615D01*
X012187Y000623D01*
X012178Y000634D01*
X012172Y000647D01*
X012170Y000660D01*
X012115Y001858D01*
X012115Y001885D01*
X012113Y001909D01*
X012108Y001932D01*
X012100Y001954D01*
X012089Y001975D01*
X012074Y001994D01*
X012058Y002010D01*
X012039Y002025D01*
X012018Y002036D01*
X011996Y002044D01*
X011973Y002049D01*
X011949Y002051D01*
X011602Y002051D01*
X011578Y002049D01*
X011554Y002044D01*
X011531Y002036D01*
X011510Y002024D01*
X011490Y002009D01*
X011473Y001992D01*
X011458Y001972D01*
X011446Y001951D01*
X011438Y001928D01*
X011433Y001904D01*
X011431Y001880D01*
X011364Y000655D01*
X011365Y000654D02*
X011362Y000641D01*
X011356Y000628D01*
X011347Y000618D01*
X011336Y000610D01*
X011323Y000605D01*
X011309Y000604D01*
X011296Y000607D01*
X011283Y000613D01*
X011273Y000622D01*
X011265Y000633D01*
X011260Y000646D01*
X011259Y000660D01*
X011342Y002244D01*
X011344Y002265D01*
X011349Y002285D01*
X011357Y002304D01*
X011367Y002322D01*
X011381Y002338D01*
X011397Y002352D01*
X011415Y002362D01*
X011434Y002370D01*
X011454Y002375D01*
X011475Y002377D01*
X012054Y002377D01*
X012077Y002375D01*
X012098Y002370D01*
X012119Y002361D01*
X012139Y002349D01*
X012156Y002335D01*
X012170Y002318D01*
X012182Y002298D01*
X012191Y002277D01*
X012196Y002256D01*
X012198Y002233D01*
X011105Y002200D02*
X011039Y000754D01*
X011039Y000737D01*
X011037Y000715D01*
X011032Y000694D01*
X011024Y000674D01*
X011013Y000656D01*
X010999Y000639D01*
X010982Y000625D01*
X010964Y000614D01*
X010944Y000606D01*
X010923Y000601D01*
X010901Y000599D01*
X010294Y000599D01*
X010272Y000130D02*
X013269Y000130D01*
X013269Y001554D01*
X013246Y000600D02*
X012639Y000600D01*
X010901Y000870D02*
X010989Y002206D01*
X010991Y002220D01*
X010997Y002232D01*
X011006Y002244D01*
X011016Y002252D01*
X011029Y002258D01*
X011043Y002261D01*
X011057Y002260D01*
X011070Y002256D01*
X011082Y002249D01*
X011092Y002239D01*
X011100Y002228D01*
X011104Y002214D01*
X011105Y002200D01*
X010619Y002217D02*
X010708Y000875D01*
X010707Y000875D02*
X010709Y000857D01*
X010714Y000839D01*
X010723Y000823D01*
X010735Y000808D01*
X010749Y000796D01*
X010765Y000787D01*
X010783Y000781D01*
X010801Y000779D01*
X010820Y000780D01*
X010838Y000785D01*
X010854Y000793D01*
X010869Y000804D01*
X010882Y000818D01*
X010891Y000834D01*
X010898Y000851D01*
X010901Y000870D01*
X010272Y001113D02*
X009902Y001113D01*
X009902Y001112D02*
X009889Y001113D01*
X009876Y001118D01*
X009864Y001125D01*
X009854Y001135D01*
X009847Y001147D01*
X009842Y001160D01*
X009841Y001173D01*
X009841Y001174D02*
X009841Y001174D01*
X009843Y001189D01*
X009848Y001203D01*
X009855Y001215D01*
X009866Y001226D01*
X009878Y001233D01*
X009892Y001238D01*
X009907Y001240D01*
X009968Y001240D01*
X009985Y001242D01*
X010002Y001247D01*
X010017Y001255D01*
X010030Y001266D01*
X010041Y001279D01*
X010049Y001294D01*
X010054Y001311D01*
X010056Y001328D01*
X010056Y001339D01*
X010054Y001356D01*
X010049Y001373D01*
X010041Y001388D01*
X010030Y001401D01*
X010017Y001412D01*
X010002Y001420D01*
X009985Y001425D01*
X009968Y001427D01*
X009902Y001427D01*
X009888Y001429D01*
X009876Y001433D01*
X009864Y001440D01*
X009854Y001450D01*
X009847Y001462D01*
X009843Y001474D01*
X009841Y001488D01*
X009843Y001503D01*
X009848Y001517D01*
X009855Y001529D01*
X009866Y001540D01*
X009878Y001547D01*
X009892Y001552D01*
X009907Y001554D01*
X010249Y001554D01*
X010294Y002261D02*
X010570Y002261D01*
X010582Y002260D01*
X010593Y002256D01*
X010603Y002249D01*
X010611Y002240D01*
X010617Y002229D01*
X010619Y002217D01*
X010272Y003194D02*
X009902Y003194D01*
X009902Y003193D02*
X009889Y003195D01*
X009876Y003199D01*
X009864Y003206D01*
X009854Y003216D01*
X009847Y003228D01*
X009842Y003241D01*
X009841Y003254D01*
X009841Y003254D01*
X009843Y003269D01*
X009848Y003283D01*
X009855Y003295D01*
X009866Y003306D01*
X009878Y003313D01*
X009892Y003318D01*
X009907Y003320D01*
X009907Y003321D02*
X009968Y003321D01*
X009985Y003323D01*
X010002Y003328D01*
X010017Y003336D01*
X010030Y003347D01*
X010041Y003360D01*
X010049Y003375D01*
X010054Y003392D01*
X010056Y003409D01*
X010056Y003420D01*
X010054Y003437D01*
X010049Y003454D01*
X010041Y003469D01*
X010030Y003482D01*
X010017Y003493D01*
X010002Y003501D01*
X009985Y003506D01*
X009968Y003508D01*
X009902Y003508D01*
X009888Y003510D01*
X009876Y003514D01*
X009864Y003521D01*
X009854Y003531D01*
X009847Y003543D01*
X009843Y003555D01*
X009841Y003569D01*
X009843Y003584D01*
X009848Y003598D01*
X009855Y003610D01*
X009866Y003621D01*
X009878Y003628D01*
X009892Y003633D01*
X009907Y003635D01*
X010277Y003635D01*
X010272Y003635D02*
X010768Y003635D01*
X010790Y003633D01*
X010812Y003628D01*
X010833Y003619D01*
X010852Y003608D01*
X010869Y003593D01*
X010884Y003576D01*
X010895Y003557D01*
X010904Y003536D01*
X010909Y003514D01*
X010911Y003492D01*
X010912Y003492D02*
X010912Y003282D01*
X010272Y003635D02*
X010272Y000130D01*
X012628Y003265D02*
X012628Y003497D01*
X012630Y003519D01*
X012635Y003540D01*
X012643Y003560D01*
X012654Y003578D01*
X012668Y003595D01*
X012685Y003609D01*
X012703Y003620D01*
X012723Y003628D01*
X012744Y003633D01*
X012766Y003635D01*
X013269Y003635D01*
X013484Y003420D02*
X013484Y003409D01*
X013486Y003392D01*
X013491Y003375D01*
X013499Y003360D01*
X013510Y003347D01*
X013523Y003336D01*
X013538Y003328D01*
X013555Y003323D01*
X013572Y003321D01*
X013572Y003320D02*
X013638Y003320D01*
X013638Y003321D02*
X013652Y003319D01*
X013664Y003315D01*
X013676Y003308D01*
X013686Y003298D01*
X013693Y003286D01*
X013697Y003274D01*
X013699Y003260D01*
X013697Y003245D01*
X013692Y003231D01*
X013685Y003219D01*
X013674Y003208D01*
X013662Y003201D01*
X013648Y003196D01*
X013633Y003194D01*
X013291Y003194D01*
X013484Y003420D02*
X013486Y003437D01*
X013491Y003454D01*
X013499Y003469D01*
X013510Y003482D01*
X013523Y003493D01*
X013538Y003501D01*
X013555Y003506D01*
X013572Y003508D01*
X013633Y003508D01*
X013648Y003510D01*
X013662Y003515D01*
X013674Y003522D01*
X013685Y003533D01*
X013692Y003545D01*
X013697Y003559D01*
X013699Y003574D01*
D13*
X031449Y003788D03*
X031457Y008918D03*
D14*
X013483Y011981D02*
X013483Y013981D01*
X010483Y013981D01*
X010483Y011981D01*
X013483Y011981D01*
D15*
X024614Y022332D02*
X026614Y022332D01*
D16*
X026114Y025375D02*
X026508Y025778D01*
X025720Y025778D01*
X026114Y025375D01*
M02*
