%
M48
M72
T01C0.0236
T02C0.0315
T03C0.0320
T04C0.0354
T05C0.0360
T06C0.0394
T07C0.0400
T08C0.0433
T09C0.0591
T10C0.0630
T11C0.0866
T12C0.1102
T13C0.1260
%
T01
X10614Y4602
X14114Y6302
X14114Y6802
X15314Y7802
X16414Y7502
X16264Y5752
X16264Y5002
X17264Y4452
X15064Y5602
X13114Y8402
X12314Y8402
X11514Y8902
X17714Y13902
X19614Y17802
X20014Y19202
X15064Y22252
X13614Y24552
X8264Y19802
X8264Y18452
X7364Y18352
X5464Y17952
X6664Y16752
X7364Y16552
X8764Y16202
X8764Y16952
X6664Y14902
X3814Y17552
X2514Y23202
X2514Y23802
X2514Y24402
X1814Y23202
X20714Y24302
X20714Y29502
X34814Y16502
X37014Y13702
X33714Y13252
X32514Y9102
X25314Y8402
X24314Y8402
X24314Y8902
X24914Y9602
X24914Y10202
T02
X33714Y15702
X33714Y19102
X35514Y19102
X34014Y27202
X32814Y27202
X9214Y14102
X7314Y14702
X4514Y13802
X11214Y7002
X14864Y4152
T03
X39330Y25956
X39330Y26956
X39330Y27956
T04
X18644Y17796
X17644Y17796
X16644Y17796
X15644Y17796
X14644Y17796
X13644Y17796
X12644Y17796
X11644Y17796
X10644Y17796
X9644Y17796
X8644Y17796
X7410Y12834
X6610Y12834
X5810Y12834
X6210Y11834
X7010Y11834
X3810Y11834
X3010Y11834
X2810Y9034
X7210Y9034
X11081Y2631
X12459Y2631
T05
X9762Y5876
X9762Y6876
T06
X7410Y13834
X6410Y13834
X3610Y13834
X2610Y13834
X8614Y20702
X5514Y20902
X2114Y20902
X36030Y20702
X37998Y20702
X37998Y25702
X36030Y25702
X36030Y15702
X37998Y15702
T07
X38707Y10418
X36707Y10418
X34707Y10418
X31707Y10418
X31707Y7418
X31699Y5288
X34699Y5288
X36699Y5288
X38699Y5288
X38707Y7418
X36707Y7418
X34707Y7418
X34699Y2288
X36699Y2288
X38699Y2288
X31699Y2288
X12983Y12481
X11983Y12481
X11983Y13481
X12983Y13481
X10983Y13481
X10983Y12481
T08
X4714Y17302
X11114Y21102
X11914Y28002
X8714Y28702
X5214Y28602
X1714Y25802
X27483Y11115
X27483Y9115
X27483Y7115
X27483Y5115
X27483Y3115
T09
X21814Y19002
X22284Y24277
T10
X1835Y4584
X8185Y4584
X21814Y11802
X22714Y4702
T11
X28514Y15202
X27514Y16202
X28514Y17202
X30514Y17202
X31514Y16202
X30514Y15202
X32314Y19502
X39264Y29152
T12
X24609Y29158
X24609Y17800
X2679Y17800
X2679Y29158
T13
X13114Y25902
X27514Y17202
X29514Y17202
X31514Y17202
X31514Y15202
X29514Y15202
X27514Y15202
X33914Y23602
X7510Y5834
X2510Y5834
X16714Y2402
M30
